<?xml version="1.0" encoding="UTF-8" standalone="no"?>
<!DOCTYPE svg PUBLIC "-//W3C//DTD SVG 1.1//EN"
 "http://www.w3.org/Graphics/SVG/1.1/DTD/svg11.dtd">
<!-- Generated by graphviz version 2.43.0 (0)
 -->
<!-- Title: main Pages: 1 -->
<svg width="208pt" height="64pt"
 viewBox="0.00 0.00 208.00 64.00" xmlns="http://www.w3.org/2000/svg" xmlns:xlink="http://www.w3.org/1999/xlink">
<g id="graph0" class="graph" transform="scale(1 1) rotate(0) translate(4 60)">
<title>main</title>
<!-- Node1 -->
<g id="Node000001" class="node">
<title>Node1</title>
<g id="a_Node000001"><a xlink:title="Main program function.">
<polygon fill="#999999" stroke="#666666" points="41,-37 0,-37 0,-18 41,-18 41,-37"/>
<text text-anchor="middle" x="20.5" y="-25" font-family="Helvetica,sans-Serif" font-size="10.00">main</text>
</a>
</g>
</g>
<!-- Node2 -->
<g id="Node000002" class="node">
<title>Node2</title>
<g id="a_Node000002"><a xlink:href="classMatrix.html#a9f62c3d4daf993f265d982ec75898824" target="_top" xlink:title="Print matrix fragment (2D only)">
<polygon fill="white" stroke="#666666" points="200,-56 77,-56 77,-37 200,-37 200,-56"/>
<text text-anchor="middle" x="138.5" y="-44" font-family="Helvetica,sans-Serif" font-size="10.00">Matrix::printFragment</text>
</a>
</g>
</g>
<!-- Node1&#45;&gt;Node2 -->
<g id="edge1_Node000001_Node000002" class="edge">
<title>Node1&#45;&gt;Node2</title>
<g id="a_edge1_Node000001_Node000002"><a xlink:title=" ">
<path fill="none" stroke="#63b8ff" d="M41.18,-30.72C49.26,-32.05 59.14,-33.67 69.46,-35.35"/>
<polygon fill="#63b8ff" stroke="#63b8ff" points="69,-38.83 79.44,-36.99 70.13,-31.92 69,-38.83"/>
</a>
</g>
</g>
<!-- Node3 -->
<g id="Node000003" class="node">
<title>Node3</title>
<g id="a_Node000003"><a xlink:href="classMatrix.html#af4273c0119a1a4e4bd717d45cf535b3f" target="_top" xlink:title="Get number of assigned elements.">
<polygon fill="white" stroke="#666666" points="175.5,-19 101.5,-19 101.5,0 175.5,0 175.5,-19"/>
<text text-anchor="middle" x="138.5" y="-7" font-family="Helvetica,sans-Serif" font-size="10.00">Matrix::size</text>
</a>
</g>
</g>
<!-- Node1&#45;&gt;Node3 -->
<g id="edge2_Node000001_Node000003" class="edge">
<title>Node1&#45;&gt;Node3</title>
<g id="a_edge2_Node000001_Node000003"><a xlink:title=" ">
<path fill="none" stroke="#63b8ff" d="M41.18,-24.45C54.9,-22.32 73.81,-19.38 91.24,-16.68"/>
<polygon fill="#63b8ff" stroke="#63b8ff" points="91.94,-20.11 101.28,-15.12 90.86,-13.19 91.94,-20.11"/>
</a>
</g>
</g>
</g>
</svg>
