<?xml version="1.0" encoding="UTF-8" standalone="no"?>
<!DOCTYPE svg PUBLIC "-//W3C//DTD SVG 1.1//EN"
 "http://www.w3.org/Graphics/SVG/1.1/DTD/svg11.dtd">
<!-- Generated by graphviz version 2.43.0 (0)
 -->
<!-- Title: TruncateCommand::execute Pages: 1 -->
<svg width="665pt" height="147pt"
 viewBox="0.00 0.00 665.00 146.50" xmlns="http://www.w3.org/2000/svg" xmlns:xlink="http://www.w3.org/1999/xlink">
<g id="graph0" class="graph" transform="scale(1 1) rotate(0) translate(4 142.5)">
<title>TruncateCommand::execute</title>
<!-- Node1 -->
<g id="Node000001" class="node">
<title>Node1</title>
<g id="a_Node000001"><a xlink:title="Выполняет команду TRUNCATE.">
<polygon fill="#999999" stroke="#666666" points="152,-85 0,-85 0,-66 152,-66 152,-85"/>
<text text-anchor="middle" x="76" y="-73" font-family="Helvetica,sans-Serif" font-size="10.00">TruncateCommand::execute</text>
</a>
</g>
</g>
<!-- Node2 -->
<g id="Node000002" class="node">
<title>Node2</title>
<g id="a_Node000002"><a xlink:href="classResultParser.html#a1ff664d1303e28c29b0c9fb2a259801c" target="_top" xlink:title="Извлечение сообщения об ошибке из ответа">
<polygon fill="white" stroke="#666666" points="301,-138.5 191,-138.5 191,-108.5 301,-108.5 301,-138.5"/>
<text text-anchor="start" x="199" y="-126.5" font-family="Helvetica,sans-Serif" font-size="10.00">ResultParser::parse</text>
<text text-anchor="middle" x="246" y="-115.5" font-family="Helvetica,sans-Serif" font-size="10.00">_error</text>
</a>
</g>
</g>
<!-- Node1&#45;&gt;Node2 -->
<g id="edge1_Node000001_Node000002" class="edge">
<title>Node1&#45;&gt;Node2</title>
<g id="a_edge1_Node000001_Node000002"><a xlink:title=" ">
<path fill="none" stroke="#63b8ff" d="M110.59,-85.1C131.13,-90.97 158.04,-98.65 182.39,-105.61"/>
<polygon fill="#63b8ff" stroke="#63b8ff" points="181.7,-109.06 192.28,-108.44 183.63,-102.32 181.7,-109.06"/>
</a>
</g>
</g>
<!-- Node3 -->
<g id="Node000003" class="node">
<title>Node3</title>
<g id="a_Node000003"><a xlink:href="classResultParser.html#a23707b4002080177db98b6e150f58309" target="_top" xlink:title="Проверка простого успешного ответа">
<polygon fill="white" stroke="#666666" points="301,-90.5 191,-90.5 191,-60.5 301,-60.5 301,-90.5"/>
<text text-anchor="start" x="199" y="-78.5" font-family="Helvetica,sans-Serif" font-size="10.00">ResultParser::parse</text>
<text text-anchor="middle" x="246" y="-67.5" font-family="Helvetica,sans-Serif" font-size="10.00">_simple_response</text>
</a>
</g>
</g>
<!-- Node1&#45;&gt;Node3 -->
<g id="edge2_Node000001_Node000003" class="edge">
<title>Node1&#45;&gt;Node3</title>
<g id="a_edge2_Node000001_Node000003"><a xlink:title=" ">
<path fill="none" stroke="#63b8ff" d="M152.16,-75.5C161.55,-75.5 171.09,-75.5 180.31,-75.5"/>
<polygon fill="#63b8ff" stroke="#63b8ff" points="180.55,-79 190.55,-75.5 180.55,-72 180.55,-79"/>
</a>
</g>
</g>
<!-- Node4 -->
<g id="Node000004" class="node">
<title>Node4</title>
<g id="a_Node000004"><a xlink:href="classNetworkClient.html#ac7f444c0914e60d40f449fe75107b4d9" target="_top" xlink:title="Отправка команды на сервер">
<polygon fill="white" stroke="#666666" points="304,-42.5 188,-42.5 188,-12.5 304,-12.5 304,-42.5"/>
<text text-anchor="start" x="196" y="-30.5" font-family="Helvetica,sans-Serif" font-size="10.00">NetworkClient::send</text>
<text text-anchor="middle" x="246" y="-19.5" font-family="Helvetica,sans-Serif" font-size="10.00">_command</text>
</a>
</g>
</g>
<!-- Node1&#45;&gt;Node4 -->
<g id="edge3_Node000001_Node000004" class="edge">
<title>Node1&#45;&gt;Node4</title>
<g id="a_edge3_Node000001_Node000004"><a xlink:title=" ">
<path fill="none" stroke="#63b8ff" d="M110.59,-65.9C131.13,-60.03 158.04,-52.35 182.39,-45.39"/>
<polygon fill="#63b8ff" stroke="#63b8ff" points="183.63,-48.68 192.28,-42.56 181.7,-41.94 183.63,-48.68"/>
</a>
</g>
</g>
<!-- Node5 -->
<g id="Node000005" class="node">
<title>Node5</title>
<g id="a_Node000005"><a xlink:href="classNetworkClient.html#aa4c59e2d8d1d3b8fac8c703c22fbdf15" target="_top" xlink:title="Гарантирует наличие активного соединения">
<polygon fill="white" stroke="#666666" points="465,-64.5 340,-64.5 340,-34.5 465,-34.5 465,-64.5"/>
<text text-anchor="start" x="348" y="-52.5" font-family="Helvetica,sans-Serif" font-size="10.00">NetworkClient::ensure</text>
<text text-anchor="middle" x="402.5" y="-41.5" font-family="Helvetica,sans-Serif" font-size="10.00">_connection</text>
</a>
</g>
</g>
<!-- Node4&#45;&gt;Node5 -->
<g id="edge4_Node000004_Node000005" class="edge">
<title>Node4&#45;&gt;Node5</title>
<g id="a_edge4_Node000004_Node000005"><a xlink:title=" ">
<path fill="none" stroke="#63b8ff" d="M304.09,-35.63C312.49,-36.83 321.24,-38.07 329.89,-39.3"/>
<polygon fill="#63b8ff" stroke="#63b8ff" points="329.58,-42.79 339.97,-40.74 330.57,-35.86 329.58,-42.79"/>
</a>
</g>
</g>
<!-- Node8 -->
<g id="Node000008" class="node">
<title>Node8</title>
<g id="a_Node000008"><a xlink:href="classNetworkClient.html#a966002a50412fa18fd7a6053aaab8e5b" target="_top" xlink:title="Проверка состояния соединения">
<polygon fill="white" stroke="#666666" points="657,-19 501,-19 501,0 657,0 657,-19"/>
<text text-anchor="middle" x="579" y="-7" font-family="Helvetica,sans-Serif" font-size="10.00">NetworkClient::is_connected</text>
</a>
</g>
</g>
<!-- Node4&#45;&gt;Node8 -->
<g id="edge8_Node000004_Node000008" class="edge">
<title>Node4&#45;&gt;Node8</title>
<g id="a_edge8_Node000004_Node000008"><a xlink:title=" ">
<path fill="none" stroke="#63b8ff" d="M304.28,-24.39C355.7,-21.59 431.95,-17.44 490.92,-14.24"/>
<polygon fill="#63b8ff" stroke="#63b8ff" points="491.18,-17.73 500.97,-13.69 490.8,-10.74 491.18,-17.73"/>
</a>
</g>
</g>
<!-- Node6 -->
<g id="Node000006" class="node">
<title>Node6</title>
<g id="a_Node000006"><a xlink:href="classNetworkClient.html#a93e26e74286cfe3dc64f3729a9cfbc65" target="_top" xlink:title="Установка соединения с сервером">
<polygon fill="white" stroke="#666666" points="644.5,-94 513.5,-94 513.5,-75 644.5,-75 644.5,-94"/>
<text text-anchor="middle" x="579" y="-82" font-family="Helvetica,sans-Serif" font-size="10.00">NetworkClient::connect</text>
</a>
</g>
</g>
<!-- Node5&#45;&gt;Node6 -->
<g id="edge5_Node000005_Node000006" class="edge">
<title>Node5&#45;&gt;Node6</title>
<g id="a_edge5_Node000005_Node000006"><a xlink:title=" ">
<path fill="none" stroke="#63b8ff" d="M465.02,-61.84C482.99,-65.44 502.55,-69.37 520.27,-72.92"/>
<polygon fill="#63b8ff" stroke="#63b8ff" points="519.97,-76.43 530.46,-74.97 521.35,-69.57 519.97,-76.43"/>
</a>
</g>
</g>
<!-- Node7 -->
<g id="Node000007" class="node">
<title>Node7</title>
<g id="a_Node000007"><a xlink:href="classNetworkClient.html#a7f69f5c30fd349d670fae18598737b86" target="_top" xlink:title="Закрытие соединения с сервером">
<polygon fill="white" stroke="#666666" points="651.5,-57 506.5,-57 506.5,-38 651.5,-38 651.5,-57"/>
<text text-anchor="middle" x="579" y="-45" font-family="Helvetica,sans-Serif" font-size="10.00">NetworkClient::disconnect</text>
</a>
</g>
</g>
<!-- Node5&#45;&gt;Node7 -->
<g id="edge6_Node000005_Node000007" class="edge">
<title>Node5&#45;&gt;Node7</title>
<g id="a_edge6_Node000005_Node000007"><a xlink:title=" ">
<path fill="none" stroke="#63b8ff" d="M465.02,-48.79C475.14,-48.68 485.75,-48.56 496.27,-48.44"/>
<polygon fill="#63b8ff" stroke="#63b8ff" points="496.33,-51.94 506.29,-48.32 496.25,-44.94 496.33,-51.94"/>
</a>
</g>
</g>
<!-- Node5&#45;&gt;Node8 -->
<g id="edge7_Node000005_Node000008" class="edge">
<title>Node5&#45;&gt;Node8</title>
<g id="a_edge7_Node000005_Node000008"><a xlink:title=" ">
<path fill="none" stroke="#63b8ff" d="M465.02,-35.4C485.16,-30.78 507.31,-25.71 526.61,-21.28"/>
<polygon fill="#63b8ff" stroke="#63b8ff" points="527.46,-24.68 536.43,-19.03 525.9,-17.85 527.46,-24.68"/>
</a>
</g>
</g>
</g>
</svg>
