<?xml version="1.0" encoding="UTF-8" standalone="no"?>
<!DOCTYPE svg PUBLIC "-//W3C//DTD SVG 1.1//EN"
 "http://www.w3.org/Graphics/SVG/1.1/DTD/svg11.dtd">
<!-- Generated by graphviz version 2.43.0 (0)
 -->
<!-- Title: NetworkClient::ensure_connection Pages: 1 -->
<svg width="491pt" height="161pt"
 viewBox="0.00 0.00 491.00 160.50" xmlns="http://www.w3.org/2000/svg" xmlns:xlink="http://www.w3.org/1999/xlink">
<g id="graph0" class="graph" transform="scale(1 1) rotate(0) translate(4 156.5)">
<title>NetworkClient::ensure_connection</title>
<!-- Node1 -->
<g id="Node000001" class="node">
<title>Node1</title>
<g id="a_Node000001"><a xlink:title="Гарантирует наличие активного соединения">
<polygon fill="#999999" stroke="#666666" points="483,-99 358,-99 358,-69 483,-69 483,-99"/>
<text text-anchor="start" x="366" y="-87" font-family="Helvetica,sans-Serif" font-size="10.00">NetworkClient::ensure</text>
<text text-anchor="middle" x="420.5" y="-76" font-family="Helvetica,sans-Serif" font-size="10.00">_connection</text>
</a>
</g>
</g>
<!-- Node2 -->
<g id="Node000002" class="node">
<title>Node2</title>
<g id="a_Node000002"><a xlink:href="classNetworkClient.html#ac7f444c0914e60d40f449fe75107b4d9" target="_top" xlink:title="Отправка команды на сервер">
<polygon fill="white" stroke="#666666" points="322,-99 206,-99 206,-69 322,-69 322,-99"/>
<text text-anchor="start" x="214" y="-87" font-family="Helvetica,sans-Serif" font-size="10.00">NetworkClient::send</text>
<text text-anchor="middle" x="264" y="-76" font-family="Helvetica,sans-Serif" font-size="10.00">_command</text>
</a>
</g>
</g>
<!-- Node1&#45;&gt;Node2 -->
<g id="edge1_Node000001_Node000002" class="edge">
<title>Node1&#45;&gt;Node2</title>
<g id="a_edge1_Node000001_Node000002"><a xlink:title=" ">
<path fill="none" stroke="#63b8ff" d="M347.96,-84C339.35,-84 330.65,-84 322.28,-84"/>
<polygon fill="#63b8ff" stroke="#63b8ff" points="347.99,-87.5 357.99,-84 347.99,-80.5 347.99,-87.5"/>
</a>
</g>
</g>
<!-- Node3 -->
<g id="Node000003" class="node">
<title>Node3</title>
<g id="a_Node000003"><a xlink:href="classInsertCommand.html#a6c4b77fb45eecfdfaaa7205af1a8bbc5" target="_top" xlink:title="Выполняет команду INSERT.">
<polygon fill="white" stroke="#666666" points="154.5,-152.5 15.5,-152.5 15.5,-133.5 154.5,-133.5 154.5,-152.5"/>
<text text-anchor="middle" x="85" y="-140.5" font-family="Helvetica,sans-Serif" font-size="10.00">InsertCommand::execute</text>
</a>
</g>
</g>
<!-- Node2&#45;&gt;Node3 -->
<g id="edge2_Node000002_Node000003" class="edge">
<title>Node2&#45;&gt;Node3</title>
<g id="a_edge2_Node000002_Node000003"><a xlink:title=" ">
<path fill="none" stroke="#63b8ff" d="M223.79,-103.41C207.46,-110.94 188.1,-119.14 170,-125 159.93,-128.26 148.98,-131.1 138.42,-133.5"/>
<polygon fill="#63b8ff" stroke="#63b8ff" points="225.46,-106.5 233.03,-99.08 222.49,-100.16 225.46,-106.5"/>
</a>
</g>
</g>
<!-- Node4 -->
<g id="Node000004" class="node">
<title>Node4</title>
<g id="a_Node000004"><a xlink:href="classTruncateCommand.html#ab658d1bed4cac28acb6c979d911441e6" target="_top" xlink:title="Выполняет команду TRUNCATE.">
<polygon fill="white" stroke="#666666" points="161,-115.5 9,-115.5 9,-96.5 161,-96.5 161,-115.5"/>
<text text-anchor="middle" x="85" y="-103.5" font-family="Helvetica,sans-Serif" font-size="10.00">TruncateCommand::execute</text>
</a>
</g>
</g>
<!-- Node2&#45;&gt;Node4 -->
<g id="edge3_Node000002_Node000004" class="edge">
<title>Node2&#45;&gt;Node4</title>
<g id="a_edge3_Node000002_Node000004"><a xlink:title=" ">
<path fill="none" stroke="#63b8ff" d="M195.42,-92.4C184.24,-93.79 172.58,-95.24 161.23,-96.65"/>
<polygon fill="#63b8ff" stroke="#63b8ff" points="196.04,-95.85 205.53,-91.14 195.18,-88.9 196.04,-95.85"/>
</a>
</g>
</g>
<!-- Node5 -->
<g id="Node000005" class="node">
<title>Node5</title>
<g id="a_Node000005"><a xlink:href="classIntersectionCommand.html#a1ee08779f32ea099218dc973e6d1a0b7" target="_top" xlink:title="Выполняет команду INTERSECTION.">
<polygon fill="white" stroke="#666666" points="147.5,-78 22.5,-78 22.5,-48 147.5,-48 147.5,-78"/>
<text text-anchor="start" x="30.5" y="-66" font-family="Helvetica,sans-Serif" font-size="10.00">IntersectionCommand</text>
<text text-anchor="middle" x="85" y="-55" font-family="Helvetica,sans-Serif" font-size="10.00">::execute</text>
</a>
</g>
</g>
<!-- Node2&#45;&gt;Node5 -->
<g id="edge4_Node000002_Node000005" class="edge">
<title>Node2&#45;&gt;Node5</title>
<g id="a_edge4_Node000002_Node000005"><a xlink:title=" ">
<path fill="none" stroke="#63b8ff" d="M195.4,-75.98C179.74,-74.12 163.15,-72.15 147.76,-70.33"/>
<polygon fill="#63b8ff" stroke="#63b8ff" points="195.19,-79.48 205.53,-77.18 196.02,-72.53 195.19,-79.48"/>
</a>
</g>
</g>
<!-- Node6 -->
<g id="Node000006" class="node">
<title>Node6</title>
<g id="a_Node000006"><a xlink:href="classSymmetricDifferenceCommand.html#afd28f29ac50b9bb3e7f4b4912e8c8447" target="_top" xlink:title="Выполняет команду SYMMETRIC_DIFFERENCE.">
<polygon fill="white" stroke="#666666" points="170,-30 0,-30 0,0 170,0 170,-30"/>
<text text-anchor="start" x="8" y="-18" font-family="Helvetica,sans-Serif" font-size="10.00">SymmetricDifferenceCommand</text>
<text text-anchor="middle" x="85" y="-7" font-family="Helvetica,sans-Serif" font-size="10.00">::execute</text>
</a>
</g>
</g>
<!-- Node2&#45;&gt;Node6 -->
<g id="edge5_Node000002_Node000006" class="edge">
<title>Node2&#45;&gt;Node6</title>
<g id="a_edge5_Node000002_Node000006"><a xlink:title=" ">
<path fill="none" stroke="#63b8ff" d="M226.12,-64.34C209.3,-55.85 188.95,-46.23 170,-39 161.64,-35.81 152.67,-32.82 143.82,-30.1"/>
<polygon fill="#63b8ff" stroke="#63b8ff" points="224.57,-67.48 235.07,-68.92 227.76,-61.25 224.57,-67.48"/>
</a>
</g>
</g>
</g>
</svg>
