<?xml version="1.0" encoding="UTF-8" standalone="no"?>
<!DOCTYPE svg PUBLIC "-//W3C//DTD SVG 1.1//EN"
 "http://www.w3.org/Graphics/SVG/1.1/DTD/svg11.dtd">
<!-- Generated by graphviz version 2.43.0 (0)
 -->
<!-- Title: TruncateCommand Pages: 1 -->
<svg width="129pt" height="262pt"
 viewBox="0.00 0.00 129.00 262.00" xmlns="http://www.w3.org/2000/svg" xmlns:xlink="http://www.w3.org/1999/xlink">
<g id="graph0" class="graph" transform="scale(1 1) rotate(0) translate(4 258)">
<title>TruncateCommand</title>
<!-- Node1 -->
<g id="Node000001" class="node">
<title>Node1</title>
<g id="a_Node000001"><a xlink:title="Команда TRUNCATE для очистки таблицы">
<polygon fill="#999999" stroke="transparent" points="121,-109 0,-109 0,0 121,0 121,-109"/>
<text text-anchor="start" x="15" y="-96.5" font-family="Helvetica,sans-Serif" font-size="10.00">TruncateCommand</text>
<text text-anchor="start" x="59" y="-81.5" font-family="Helvetica,sans-Serif" font-size="10.00"> </text>
<text text-anchor="start" x="4.5" y="-66.5" font-family="Helvetica,sans-Serif" font-size="10.00">+</text>
<text text-anchor="start" x="17.5" y="-66.5" font-family="Helvetica,sans-Serif" font-size="10.00">TruncateCommand()</text>
<text text-anchor="start" x="4.5" y="-51.5" font-family="Helvetica,sans-Serif" font-size="10.00">+</text>
<text text-anchor="start" x="17.5" y="-51.5" font-family="Helvetica,sans-Serif" font-size="10.00">execute()</text>
<text text-anchor="start" x="4.5" y="-36.5" font-family="Helvetica,sans-Serif" font-size="10.00">+</text>
<text text-anchor="start" x="17.5" y="-36.5" font-family="Helvetica,sans-Serif" font-size="10.00">TruncateCommand()</text>
<text text-anchor="start" x="4.5" y="-21.5" font-family="Helvetica,sans-Serif" font-size="10.00">+</text>
<text text-anchor="start" x="17.5" y="-21.5" font-family="Helvetica,sans-Serif" font-size="10.00">execute()</text>
<text text-anchor="start" x="4.5" y="-6.5" font-family="Helvetica,sans-Serif" font-size="10.00">+</text>
<text text-anchor="start" x="17.5" y="-6.5" font-family="Helvetica,sans-Serif" font-size="10.00">get_name()</text>
<polygon fill="#666666" stroke="#666666" points="0.5,-91.5 0.5,-91.5 121.5,-91.5 121.5,-91.5 0.5,-91.5"/>
<polygon fill="#666666" stroke="#666666" points="0.5,-76.5 0.5,-76.5 121.5,-76.5 121.5,-76.5 0.5,-76.5"/>
<polygon fill="none" stroke="#666666" points="0,0 0,-109 121,-109 121,0 0,0"/>
</a>
</g>
</g>
<!-- Node2 -->
<g id="Node000002" class="node">
<title>Node2</title>
<g id="a_Node000002"><a xlink:href="classICommand.html" target="_top" xlink:title="Базовый интерфейс для всех команд">
<polygon fill="white" stroke="transparent" points="106,-254 15,-254 15,-145 106,-145 106,-254"/>
<text text-anchor="start" x="34" y="-241.5" font-family="Helvetica,sans-Serif" font-size="10.00">ICommand</text>
<text text-anchor="start" x="59" y="-226.5" font-family="Helvetica,sans-Serif" font-size="10.00"> </text>
<text text-anchor="start" x="19.5" y="-211.5" font-family="Helvetica,sans-Serif" font-size="10.00">+</text>
<text text-anchor="start" x="32.5" y="-211.5" font-family="Helvetica,sans-Serif" font-size="10.00">~ICommand()</text>
<text text-anchor="start" x="19.5" y="-196.5" font-family="Helvetica,sans-Serif" font-size="10.00">+</text>
<text text-anchor="start" x="32.5" y="-196.5" font-family="Helvetica,sans-Serif" font-size="10.00">execute()</text>
<text text-anchor="start" x="19.5" y="-181.5" font-family="Helvetica,sans-Serif" font-size="10.00">+</text>
<text text-anchor="start" x="32.5" y="-181.5" font-family="Helvetica,sans-Serif" font-size="10.00">~ICommand()</text>
<text text-anchor="start" x="19.5" y="-166.5" font-family="Helvetica,sans-Serif" font-size="10.00">+</text>
<text text-anchor="start" x="32.5" y="-166.5" font-family="Helvetica,sans-Serif" font-size="10.00">execute()</text>
<text text-anchor="start" x="19.5" y="-151.5" font-family="Helvetica,sans-Serif" font-size="10.00">+</text>
<text text-anchor="start" x="32.5" y="-151.5" font-family="Helvetica,sans-Serif" font-size="10.00">get_name()</text>
<polygon fill="#666666" stroke="#666666" points="15.5,-236.5 15.5,-236.5 106.5,-236.5 106.5,-236.5 15.5,-236.5"/>
<polygon fill="#666666" stroke="#666666" points="15.5,-221.5 15.5,-221.5 106.5,-221.5 106.5,-221.5 15.5,-221.5"/>
<polygon fill="none" stroke="#666666" points="15,-145 15,-254 106,-254 106,-145 15,-145"/>
</a>
</g>
</g>
<!-- Node2&#45;&gt;Node1 -->
<g id="edge1_Node000001_Node000002" class="edge">
<title>Node2&#45;&gt;Node1</title>
<g id="a_edge1_Node000001_Node000002"><a xlink:title=" ">
<path fill="none" stroke="#63b8ff" d="M53.78,-134.68C53.71,-126.25 53.76,-117.69 53.93,-109.46"/>
<polygon fill="none" stroke="#63b8ff" points="50.29,-134.9 53.94,-144.85 57.29,-134.79 50.29,-134.9"/>
</a>
</g>
</g>
<!-- Node2&#45;&gt;Node1 -->
<g id="edge2_Node000001_Node000002" class="edge">
<title>Node2&#45;&gt;Node1</title>
<g id="a_edge2_Node000001_Node000002"><a xlink:title=" ">
<path fill="none" stroke="#63b8ff" d="M67.22,-134.68C67.29,-126.25 67.24,-117.69 67.07,-109.46"/>
<polygon fill="none" stroke="#63b8ff" points="63.71,-134.79 67.06,-144.85 70.71,-134.9 63.71,-134.79"/>
</a>
</g>
</g>
</g>
</svg>
