<?xml version="1.0" encoding="UTF-8" standalone="no"?>
<!DOCTYPE svg PUBLIC "-//W3C//DTD SVG 1.1//EN"
 "http://www.w3.org/Graphics/SVG/1.1/DTD/svg11.dtd">
<!-- Generated by graphviz version 2.43.0 (0)
 -->
<!-- Title: IntersectionCommand::execute Pages: 1 -->
<svg width="638pt" height="102pt"
 viewBox="0.00 0.00 638.00 102.00" xmlns="http://www.w3.org/2000/svg" xmlns:xlink="http://www.w3.org/1999/xlink">
<g id="graph0" class="graph" transform="scale(1 1) rotate(0) translate(4 98)">
<title>IntersectionCommand::execute</title>
<!-- Node1 -->
<g id="Node000001" class="node">
<title>Node1</title>
<g id="a_Node000001"><a xlink:title="Выполняет команду INTERSECTION.">
<polygon fill="#999999" stroke="#666666" points="125,-66.5 0,-66.5 0,-36.5 125,-36.5 125,-66.5"/>
<text text-anchor="start" x="8" y="-54.5" font-family="Helvetica,sans-Serif" font-size="10.00">IntersectionCommand</text>
<text text-anchor="middle" x="62.5" y="-43.5" font-family="Helvetica,sans-Serif" font-size="10.00">::execute</text>
</a>
</g>
</g>
<!-- Node2 -->
<g id="Node000002" class="node">
<title>Node2</title>
<g id="a_Node000002"><a xlink:href="classResultParser.html#ac3915e5d23e143fc6e9158850b8f9bb5" target="_top" xlink:title="Разбор ответа на команду INTERSECTION.">
<polygon fill="white" stroke="#666666" points="274,-90.5 164,-90.5 164,-60.5 274,-60.5 274,-90.5"/>
<text text-anchor="start" x="172" y="-78.5" font-family="Helvetica,sans-Serif" font-size="10.00">ResultParser::parse</text>
<text text-anchor="middle" x="219" y="-67.5" font-family="Helvetica,sans-Serif" font-size="10.00">_intersection</text>
</a>
</g>
</g>
<!-- Node1&#45;&gt;Node2 -->
<g id="edge1_Node000001_Node000002" class="edge">
<title>Node1&#45;&gt;Node2</title>
<g id="a_edge1_Node000001_Node000002"><a xlink:title=" ">
<path fill="none" stroke="#63b8ff" d="M125.01,-61.05C134.4,-62.51 144.12,-64.02 153.57,-65.49"/>
<polygon fill="#63b8ff" stroke="#63b8ff" points="153.28,-68.99 163.7,-67.06 154.35,-62.07 153.28,-68.99"/>
</a>
</g>
</g>
<!-- Node3 -->
<g id="Node000003" class="node">
<title>Node3</title>
<g id="a_Node000003"><a xlink:href="classNetworkClient.html#ac7f444c0914e60d40f449fe75107b4d9" target="_top" xlink:title="Отправка команды на сервер">
<polygon fill="white" stroke="#666666" points="277,-42.5 161,-42.5 161,-12.5 277,-12.5 277,-42.5"/>
<text text-anchor="start" x="169" y="-30.5" font-family="Helvetica,sans-Serif" font-size="10.00">NetworkClient::send</text>
<text text-anchor="middle" x="219" y="-19.5" font-family="Helvetica,sans-Serif" font-size="10.00">_command</text>
</a>
</g>
</g>
<!-- Node1&#45;&gt;Node3 -->
<g id="edge2_Node000001_Node000003" class="edge">
<title>Node1&#45;&gt;Node3</title>
<g id="a_edge2_Node000001_Node000003"><a xlink:title=" ">
<path fill="none" stroke="#63b8ff" d="M125.01,-41.95C133.47,-40.63 142.21,-39.27 150.77,-37.94"/>
<polygon fill="#63b8ff" stroke="#63b8ff" points="151.38,-41.39 160.72,-36.4 150.3,-34.47 151.38,-41.39"/>
</a>
</g>
</g>
<!-- Node4 -->
<g id="Node000004" class="node">
<title>Node4</title>
<g id="a_Node000004"><a xlink:href="classNetworkClient.html#aa4c59e2d8d1d3b8fac8c703c22fbdf15" target="_top" xlink:title="Гарантирует наличие активного соединения">
<polygon fill="white" stroke="#666666" points="438,-64.5 313,-64.5 313,-34.5 438,-34.5 438,-64.5"/>
<text text-anchor="start" x="321" y="-52.5" font-family="Helvetica,sans-Serif" font-size="10.00">NetworkClient::ensure</text>
<text text-anchor="middle" x="375.5" y="-41.5" font-family="Helvetica,sans-Serif" font-size="10.00">_connection</text>
</a>
</g>
</g>
<!-- Node3&#45;&gt;Node4 -->
<g id="edge3_Node000003_Node000004" class="edge">
<title>Node3&#45;&gt;Node4</title>
<g id="a_edge3_Node000003_Node000004"><a xlink:title=" ">
<path fill="none" stroke="#63b8ff" d="M277.09,-35.63C285.49,-36.83 294.24,-38.07 302.89,-39.3"/>
<polygon fill="#63b8ff" stroke="#63b8ff" points="302.58,-42.79 312.97,-40.74 303.57,-35.86 302.58,-42.79"/>
</a>
</g>
</g>
<!-- Node7 -->
<g id="Node000007" class="node">
<title>Node7</title>
<g id="a_Node000007"><a xlink:href="classNetworkClient.html#a966002a50412fa18fd7a6053aaab8e5b" target="_top" xlink:title="Проверка состояния соединения">
<polygon fill="white" stroke="#666666" points="630,-19 474,-19 474,0 630,0 630,-19"/>
<text text-anchor="middle" x="552" y="-7" font-family="Helvetica,sans-Serif" font-size="10.00">NetworkClient::is_connected</text>
</a>
</g>
</g>
<!-- Node3&#45;&gt;Node7 -->
<g id="edge7_Node000003_Node000007" class="edge">
<title>Node3&#45;&gt;Node7</title>
<g id="a_edge7_Node000003_Node000007"><a xlink:title=" ">
<path fill="none" stroke="#63b8ff" d="M277.28,-24.39C328.7,-21.59 404.95,-17.44 463.92,-14.24"/>
<polygon fill="#63b8ff" stroke="#63b8ff" points="464.18,-17.73 473.97,-13.69 463.8,-10.74 464.18,-17.73"/>
</a>
</g>
</g>
<!-- Node5 -->
<g id="Node000005" class="node">
<title>Node5</title>
<g id="a_Node000005"><a xlink:href="classNetworkClient.html#a93e26e74286cfe3dc64f3729a9cfbc65" target="_top" xlink:title="Установка соединения с сервером">
<polygon fill="white" stroke="#666666" points="617.5,-94 486.5,-94 486.5,-75 617.5,-75 617.5,-94"/>
<text text-anchor="middle" x="552" y="-82" font-family="Helvetica,sans-Serif" font-size="10.00">NetworkClient::connect</text>
</a>
</g>
</g>
<!-- Node4&#45;&gt;Node5 -->
<g id="edge4_Node000004_Node000005" class="edge">
<title>Node4&#45;&gt;Node5</title>
<g id="a_edge4_Node000004_Node000005"><a xlink:title=" ">
<path fill="none" stroke="#63b8ff" d="M438.02,-61.84C455.99,-65.44 475.55,-69.37 493.27,-72.92"/>
<polygon fill="#63b8ff" stroke="#63b8ff" points="492.97,-76.43 503.46,-74.97 494.35,-69.57 492.97,-76.43"/>
</a>
</g>
</g>
<!-- Node6 -->
<g id="Node000006" class="node">
<title>Node6</title>
<g id="a_Node000006"><a xlink:href="classNetworkClient.html#a7f69f5c30fd349d670fae18598737b86" target="_top" xlink:title="Закрытие соединения с сервером">
<polygon fill="white" stroke="#666666" points="624.5,-57 479.5,-57 479.5,-38 624.5,-38 624.5,-57"/>
<text text-anchor="middle" x="552" y="-45" font-family="Helvetica,sans-Serif" font-size="10.00">NetworkClient::disconnect</text>
</a>
</g>
</g>
<!-- Node4&#45;&gt;Node6 -->
<g id="edge5_Node000004_Node000006" class="edge">
<title>Node4&#45;&gt;Node6</title>
<g id="a_edge5_Node000004_Node000006"><a xlink:title=" ">
<path fill="none" stroke="#63b8ff" d="M438.02,-48.79C448.14,-48.68 458.75,-48.56 469.27,-48.44"/>
<polygon fill="#63b8ff" stroke="#63b8ff" points="469.33,-51.94 479.29,-48.32 469.25,-44.94 469.33,-51.94"/>
</a>
</g>
</g>
<!-- Node4&#45;&gt;Node7 -->
<g id="edge6_Node000004_Node000007" class="edge">
<title>Node4&#45;&gt;Node7</title>
<g id="a_edge6_Node000004_Node000007"><a xlink:title=" ">
<path fill="none" stroke="#63b8ff" d="M438.02,-35.4C458.16,-30.78 480.31,-25.71 499.61,-21.28"/>
<polygon fill="#63b8ff" stroke="#63b8ff" points="500.46,-24.68 509.43,-19.03 498.9,-17.85 500.46,-24.68"/>
</a>
</g>
</g>
</g>
</svg>
