<?xml version="1.0" encoding="UTF-8" standalone="no"?>
<!DOCTYPE svg PUBLIC "-//W3C//DTD SVG 1.1//EN"
 "http://www.w3.org/Graphics/SVG/1.1/DTD/svg11.dtd">
<!-- Generated by graphviz version 2.43.0 (0)
 -->
<!-- Title: /home/runner/work/otus&#45;cpp&#45;profession/otus&#45;cpp&#45;profession/hw11/join/app/client/commands/command.cpp Pages: 1 -->
<svg width="501pt" height="225pt"
 viewBox="0.00 0.00 500.82 225.00" xmlns="http://www.w3.org/2000/svg" xmlns:xlink="http://www.w3.org/1999/xlink">
<g id="graph0" class="graph" transform="scale(1 1) rotate(0) translate(4 221)">
<title>/home/runner/work/otus&#45;cpp&#45;profession/otus&#45;cpp&#45;profession/hw11/join/app/client/commands/command.cpp</title>
<!-- Node1 -->
<g id="Node000001" class="node">
<title>Node1</title>
<g id="a_Node000001"><a xlink:title="Реализация классов команд для клиента операций над множествами">
<polygon fill="#999999" stroke="#666666" points="276,-217 100,-217 100,-165 276,-165 276,-217"/>
<text text-anchor="start" x="108" y="-205" font-family="Helvetica,sans-Serif" font-size="10.00">/home/runner/work/otus</text>
<text text-anchor="start" x="108" y="-194" font-family="Helvetica,sans-Serif" font-size="10.00">&#45;cpp&#45;profession/otus&#45;cpp</text>
<text text-anchor="start" x="108" y="-183" font-family="Helvetica,sans-Serif" font-size="10.00">&#45;profession/hw11/join/app</text>
<text text-anchor="middle" x="188" y="-172" font-family="Helvetica,sans-Serif" font-size="10.00">/client/commands/command.cpp</text>
</a>
</g>
</g>
<!-- Node2 -->
<g id="Node000002" class="node">
<title>Node2</title>
<g id="a_Node000002"><a xlink:href="client_2commands_2command_8h.html" target="_top" xlink:title=" ">
<polygon fill="white" stroke="#666666" points="225,-129 151,-129 151,-110 225,-110 225,-129"/>
<text text-anchor="middle" x="188" y="-117" font-family="Helvetica,sans-Serif" font-size="10.00">command.h</text>
</a>
</g>
</g>
<!-- Node1&#45;&gt;Node2 -->
<g id="edge1_Node000001_Node000002" class="edge">
<title>Node1&#45;&gt;Node2</title>
<g id="a_edge1_Node000001_Node000002"><a xlink:title=" ">
<path fill="none" stroke="#63b8ff" d="M188,-164.91C188,-156.55 188,-147.38 188,-139.55"/>
<polygon fill="#63b8ff" stroke="#63b8ff" points="191.5,-139.3 188,-129.3 184.5,-139.3 191.5,-139.3"/>
</a>
</g>
</g>
<!-- Node7 -->
<g id="Node000007" class="node">
<title>Node7</title>
<g id="a_Node000007"><a xlink:title=" ">
<polygon fill="#e0e0e0" stroke="#999999" points="60,-19 0,-19 0,0 60,0 60,-19"/>
<text text-anchor="middle" x="30" y="-7" font-family="Helvetica,sans-Serif" font-size="10.00">iostream</text>
</a>
</g>
</g>
<!-- Node1&#45;&gt;Node7 -->
<g id="edge17_Node000001_Node000007" class="edge">
<title>Node1&#45;&gt;Node7</title>
<g id="a_edge17_Node000001_Node000007"><a xlink:title=" ">
<path fill="none" stroke="#63b8ff" d="M163.02,-164.86C140.44,-141.79 106.6,-106.39 79,-74 65.94,-58.67 52,-40.4 42.34,-27.4"/>
<polygon fill="#63b8ff" stroke="#63b8ff" points="45.15,-25.31 36.4,-19.34 39.51,-29.46 45.15,-25.31"/>
</a>
</g>
</g>
<!-- Node10 -->
<g id="Node000010" class="node">
<title>Node10</title>
<g id="a_Node000010"><a xlink:href="result__parser_8h.html" target="_top" xlink:title=" ">
<polygon fill="white" stroke="#666666" points="457,-129 335,-129 335,-110 457,-110 457,-129"/>
<text text-anchor="middle" x="396" y="-117" font-family="Helvetica,sans-Serif" font-size="10.00">../data/result_parser.h</text>
</a>
</g>
</g>
<!-- Node1&#45;&gt;Node10 -->
<g id="edge12_Node000001_Node000010" class="edge">
<title>Node1&#45;&gt;Node10</title>
<g id="a_edge12_Node000001_Node000010"><a xlink:title=" ">
<path fill="none" stroke="#63b8ff" d="M263.09,-164.91C296.32,-153.81 333.82,-141.28 360.49,-132.36"/>
<polygon fill="#63b8ff" stroke="#63b8ff" points="361.78,-135.62 370.16,-129.14 359.56,-128.99 361.78,-135.62"/>
</a>
</g>
</g>
<!-- Node3 -->
<g id="Node000003" class="node">
<title>Node3</title>
<g id="a_Node000003"><a xlink:title=" ">
<polygon fill="#e0e0e0" stroke="#999999" points="319,-19 275,-19 275,0 319,0 319,-19"/>
<text text-anchor="middle" x="297" y="-7" font-family="Helvetica,sans-Serif" font-size="10.00">string</text>
</a>
</g>
</g>
<!-- Node2&#45;&gt;Node3 -->
<g id="edge2_Node000002_Node000003" class="edge">
<title>Node2&#45;&gt;Node3</title>
<g id="a_edge2_Node000002_Node000003"><a xlink:title=" ">
<path fill="none" stroke="#63b8ff" d="M195.95,-109.67C207.25,-97.22 228.72,-73.9 248,-55 258.15,-45.04 269.94,-34.32 279.41,-25.89"/>
<polygon fill="#63b8ff" stroke="#63b8ff" points="281.86,-28.39 287.03,-19.15 277.22,-23.15 281.86,-28.39"/>
</a>
</g>
</g>
<!-- Node4 -->
<g id="Node000004" class="node">
<title>Node4</title>
<g id="a_Node000004"><a xlink:title=" ">
<polygon fill="#e0e0e0" stroke="#999999" points="136,-19 78,-19 78,0 136,0 136,-19"/>
<text text-anchor="middle" x="107" y="-7" font-family="Helvetica,sans-Serif" font-size="10.00">memory</text>
</a>
</g>
</g>
<!-- Node2&#45;&gt;Node4 -->
<g id="edge3_Node000002_Node000004" class="edge">
<title>Node2&#45;&gt;Node4</title>
<g id="a_edge3_Node000002_Node000004"><a xlink:title=" ">
<path fill="none" stroke="#63b8ff" d="M150.86,-112.53C128.24,-106.77 101.08,-95.59 87,-74 77.77,-59.84 85.61,-41.14 94.03,-27.7"/>
<polygon fill="#63b8ff" stroke="#63b8ff" points="96.98,-29.59 99.75,-19.36 91.21,-25.63 96.98,-29.59"/>
</a>
</g>
</g>
<!-- Node5 -->
<g id="Node000005" class="node">
<title>Node5</title>
<g id="a_Node000005"><a xlink:href="client_8h.html" target="_top" xlink:title=" ">
<polygon fill="white" stroke="#666666" points="200,-74 96,-74 96,-55 200,-55 200,-74"/>
<text text-anchor="middle" x="148" y="-62" font-family="Helvetica,sans-Serif" font-size="10.00">../network/client.h</text>
</a>
</g>
</g>
<!-- Node2&#45;&gt;Node5 -->
<g id="edge4_Node000002_Node000005" class="edge">
<title>Node2&#45;&gt;Node5</title>
<g id="a_edge4_Node000002_Node000005"><a xlink:title=" ">
<path fill="none" stroke="#63b8ff" d="M181.39,-109.75C175.74,-102.26 167.46,-91.28 160.55,-82.13"/>
<polygon fill="#63b8ff" stroke="#63b8ff" points="163.3,-79.96 154.48,-74.09 157.71,-84.18 163.3,-79.96"/>
</a>
</g>
</g>
<!-- Node8 -->
<g id="Node000008" class="node">
<title>Node8</title>
<g id="a_Node000008"><a xlink:href="table__data_8h.html" target="_top" xlink:title=" ">
<polygon fill="white" stroke="#666666" points="367.5,-74 256.5,-74 256.5,-55 367.5,-55 367.5,-74"/>
<text text-anchor="middle" x="312" y="-62" font-family="Helvetica,sans-Serif" font-size="10.00">../data/table_data.h</text>
</a>
</g>
</g>
<!-- Node2&#45;&gt;Node8 -->
<g id="edge9_Node000002_Node000008" class="edge">
<title>Node2&#45;&gt;Node8</title>
<g id="a_edge9_Node000002_Node000008"><a xlink:title=" ">
<path fill="none" stroke="#63b8ff" d="M207.92,-109.98C228.05,-101.38 259.38,-87.99 282.41,-78.15"/>
<polygon fill="#63b8ff" stroke="#63b8ff" points="283.9,-81.32 291.71,-74.17 281.14,-74.88 283.9,-81.32"/>
</a>
</g>
</g>
<!-- Node5&#45;&gt;Node3 -->
<g id="edge6_Node000005_Node000003" class="edge">
<title>Node5&#45;&gt;Node3</title>
<g id="a_edge6_Node000005_Node000003"><a xlink:title=" ">
<path fill="none" stroke="#63b8ff" d="M171.94,-54.98C197.14,-46.02 236.96,-31.86 264.88,-21.92"/>
<polygon fill="#63b8ff" stroke="#63b8ff" points="266.33,-25.12 274.58,-18.47 263.99,-18.53 266.33,-25.12"/>
</a>
</g>
</g>
<!-- Node5&#45;&gt;Node4 -->
<g id="edge7_Node000005_Node000004" class="edge">
<title>Node5&#45;&gt;Node4</title>
<g id="a_edge7_Node000005_Node000004"><a xlink:title=" ">
<path fill="none" stroke="#63b8ff" d="M141.23,-54.75C135.44,-47.26 126.94,-36.28 119.86,-27.13"/>
<polygon fill="#63b8ff" stroke="#63b8ff" points="122.53,-24.86 113.64,-19.09 116.99,-29.14 122.53,-24.86"/>
</a>
</g>
</g>
<!-- Node6 -->
<g id="Node000006" class="node">
<title>Node6</title>
<g id="a_Node000006"><a xlink:title=" ">
<polygon fill="#e0e0e0" stroke="#999999" points="242,-19 154,-19 154,0 242,0 242,-19"/>
<text text-anchor="middle" x="198" y="-7" font-family="Helvetica,sans-Serif" font-size="10.00">boost/asio.hpp</text>
</a>
</g>
</g>
<!-- Node5&#45;&gt;Node6 -->
<g id="edge5_Node000005_Node000006" class="edge">
<title>Node5&#45;&gt;Node6</title>
<g id="a_edge5_Node000005_Node000006"><a xlink:title=" ">
<path fill="none" stroke="#63b8ff" d="M156.26,-54.75C163.46,-47.11 174.11,-35.82 182.85,-26.56"/>
<polygon fill="#63b8ff" stroke="#63b8ff" points="185.58,-28.76 189.9,-19.09 180.49,-23.96 185.58,-28.76"/>
</a>
</g>
</g>
<!-- Node5&#45;&gt;Node7 -->
<g id="edge8_Node000005_Node000007" class="edge">
<title>Node5&#45;&gt;Node7</title>
<g id="a_edge8_Node000005_Node000007"><a xlink:title=" ">
<path fill="none" stroke="#63b8ff" d="M129.04,-54.98C109.97,-46.42 80.34,-33.11 58.45,-23.28"/>
<polygon fill="#63b8ff" stroke="#63b8ff" points="59.86,-20.07 49.3,-19.17 56.99,-26.46 59.86,-20.07"/>
</a>
</g>
</g>
<!-- Node8&#45;&gt;Node3 -->
<g id="edge10_Node000008_Node000003" class="edge">
<title>Node8&#45;&gt;Node3</title>
<g id="a_edge10_Node000008_Node000003"><a xlink:title=" ">
<path fill="none" stroke="#63b8ff" d="M309.52,-54.75C307.54,-47.72 304.68,-37.62 302.19,-28.84"/>
<polygon fill="#63b8ff" stroke="#63b8ff" points="305.52,-27.76 299.43,-19.09 298.79,-29.66 305.52,-27.76"/>
</a>
</g>
</g>
<!-- Node9 -->
<g id="Node000009" class="node">
<title>Node9</title>
<g id="a_Node000009"><a xlink:title=" ">
<polygon fill="#e0e0e0" stroke="#999999" points="457.5,-19 410.5,-19 410.5,0 457.5,0 457.5,-19"/>
<text text-anchor="middle" x="434" y="-7" font-family="Helvetica,sans-Serif" font-size="10.00">vector</text>
</a>
</g>
</g>
<!-- Node8&#45;&gt;Node9 -->
<g id="edge11_Node000008_Node000009" class="edge">
<title>Node8&#45;&gt;Node9</title>
<g id="a_edge11_Node000008_Node000009"><a xlink:title=" ">
<path fill="none" stroke="#63b8ff" d="M331.6,-54.98C351.32,-46.42 381.95,-33.11 404.58,-23.28"/>
<polygon fill="#63b8ff" stroke="#63b8ff" points="406.26,-26.37 414.04,-19.17 403.48,-19.94 406.26,-26.37"/>
</a>
</g>
</g>
<!-- Node10&#45;&gt;Node3 -->
<g id="edge14_Node000010_Node000003" class="edge">
<title>Node10&#45;&gt;Node3</title>
<g id="a_edge14_Node000010_Node000003"><a xlink:title=" ">
<path fill="none" stroke="#63b8ff" d="M395.44,-109.74C394.19,-96.53 390.12,-71.32 377,-55 364.52,-39.47 345.07,-28.47 328.47,-21.3"/>
<polygon fill="#63b8ff" stroke="#63b8ff" points="329.69,-18.02 319.11,-17.51 327.07,-24.51 329.69,-18.02"/>
</a>
</g>
</g>
<!-- Node10&#45;&gt;Node8 -->
<g id="edge13_Node000010_Node000008" class="edge">
<title>Node10&#45;&gt;Node8</title>
<g id="a_edge13_Node000010_Node000008"><a xlink:title=" ">
<path fill="none" stroke="#63b8ff" d="M382.5,-109.98C369.6,-101.84 349.9,-89.41 334.6,-79.76"/>
<polygon fill="#63b8ff" stroke="#63b8ff" points="336.07,-76.55 325.74,-74.17 332.33,-82.47 336.07,-76.55"/>
</a>
</g>
</g>
<!-- Node10&#45;&gt;Node9 -->
<g id="edge15_Node000010_Node000009" class="edge">
<title>Node10&#45;&gt;Node9</title>
<g id="a_edge15_Node000010_Node000009"><a xlink:title=" ">
<path fill="none" stroke="#63b8ff" d="M436.2,-109.87C455.69,-103.45 477.36,-92.48 489,-74 500.8,-55.27 479.28,-36.43 459.8,-24.2"/>
<polygon fill="#63b8ff" stroke="#63b8ff" points="461.51,-21.14 451.12,-19.06 457.95,-27.17 461.51,-21.14"/>
</a>
</g>
</g>
<!-- Node11 -->
<g id="Node000011" class="node">
<title>Node11</title>
<g id="a_Node000011"><a xlink:title=" ">
<polygon fill="#e0e0e0" stroke="#999999" points="480,-74 424,-74 424,-55 480,-55 480,-74"/>
<text text-anchor="middle" x="452" y="-62" font-family="Helvetica,sans-Serif" font-size="10.00">sstream</text>
</a>
</g>
</g>
<!-- Node10&#45;&gt;Node11 -->
<g id="edge16_Node000010_Node000011" class="edge">
<title>Node10&#45;&gt;Node11</title>
<g id="a_edge16_Node000010_Node000011"><a xlink:title=" ">
<path fill="none" stroke="#63b8ff" d="M405,-109.98C413.19,-102.23 425.51,-90.58 435.47,-81.14"/>
<polygon fill="#63b8ff" stroke="#63b8ff" points="437.98,-83.59 442.84,-74.17 433.17,-78.5 437.98,-83.59"/>
</a>
</g>
</g>
</g>
</svg>
