<?xml version="1.0" encoding="UTF-8" standalone="no"?>
<!DOCTYPE svg PUBLIC "-//W3C//DTD SVG 1.1//EN"
 "http://www.w3.org/Graphics/SVG/1.1/DTD/svg11.dtd">
<!-- Generated by graphviz version 2.43.0 (0)
 -->
<!-- Title: /home/runner/work/otus&#45;cpp&#45;profession/otus&#45;cpp&#45;profession/hw11/join/app/client/commands/command_executor.h Pages: 1 -->
<svg width="620pt" height="225pt"
 viewBox="0.00 0.00 619.50 225.00" xmlns="http://www.w3.org/2000/svg" xmlns:xlink="http://www.w3.org/1999/xlink">
<g id="graph0" class="graph" transform="scale(1 1) rotate(0) translate(4 221)">
<title>/home/runner/work/otus&#45;cpp&#45;profession/otus&#45;cpp&#45;profession/hw11/join/app/client/commands/command_executor.h</title>
<!-- Node1 -->
<g id="Node000001" class="node">
<title>Node1</title>
<g id="a_Node000001"><a xlink:title=" ">
<polygon fill="#999999" stroke="#666666" points="501.5,-217 290.5,-217 290.5,-165 501.5,-165 501.5,-217"/>
<text text-anchor="start" x="298.5" y="-205" font-family="Helvetica,sans-Serif" font-size="10.00">/home/runner/work/otus</text>
<text text-anchor="start" x="298.5" y="-194" font-family="Helvetica,sans-Serif" font-size="10.00">&#45;cpp&#45;profession/otus&#45;cpp</text>
<text text-anchor="start" x="298.5" y="-183" font-family="Helvetica,sans-Serif" font-size="10.00">&#45;profession/hw11/join/app</text>
<text text-anchor="middle" x="396" y="-172" font-family="Helvetica,sans-Serif" font-size="10.00">/client/commands/command_executor.h</text>
</a>
</g>
</g>
<!-- Node2 -->
<g id="Node000002" class="node">
<title>Node2</title>
<g id="a_Node000002"><a xlink:href="client_2commands_2command_8h.html" target="_top" xlink:title=" ">
<polygon fill="white" stroke="#666666" points="237,-129 163,-129 163,-110 237,-110 237,-129"/>
<text text-anchor="middle" x="200" y="-117" font-family="Helvetica,sans-Serif" font-size="10.00">command.h</text>
</a>
</g>
</g>
<!-- Node1&#45;&gt;Node2 -->
<g id="edge1_Node000001_Node000002" class="edge">
<title>Node1&#45;&gt;Node2</title>
<g id="a_edge1_Node000001_Node000002"><a xlink:title=" ">
<path fill="none" stroke="#63b8ff" d="M325.24,-164.91C294.07,-153.86 258.91,-141.39 233.79,-132.48"/>
<polygon fill="#63b8ff" stroke="#63b8ff" points="234.95,-129.18 224.35,-129.14 232.61,-135.78 234.95,-129.18"/>
</a>
</g>
</g>
<!-- Node4 -->
<g id="Node000004" class="node">
<title>Node4</title>
<g id="a_Node000004"><a xlink:title=" ">
<polygon fill="#e0e0e0" stroke="#999999" points="58,-19 0,-19 0,0 58,0 58,-19"/>
<text text-anchor="middle" x="29" y="-7" font-family="Helvetica,sans-Serif" font-size="10.00">memory</text>
</a>
</g>
</g>
<!-- Node1&#45;&gt;Node4 -->
<g id="edge17_Node000001_Node000004" class="edge">
<title>Node1&#45;&gt;Node4</title>
<g id="a_edge17_Node000001_Node000004"><a xlink:title=" ">
<path fill="none" stroke="#63b8ff" d="M290.45,-186.15C208.43,-177.02 99.15,-150.13 41,-74 31.32,-61.32 28.69,-43.14 28.26,-29.48"/>
<polygon fill="#63b8ff" stroke="#63b8ff" points="31.77,-29.3 28.32,-19.28 24.77,-29.26 31.77,-29.3"/>
</a>
</g>
</g>
<!-- Node9 -->
<g id="Node000009" class="node">
<title>Node9</title>
<g id="a_Node000009"><a xlink:title=" ">
<polygon fill="#e0e0e0" stroke="#999999" points="503.5,-19 456.5,-19 456.5,0 503.5,0 503.5,-19"/>
<text text-anchor="middle" x="480" y="-7" font-family="Helvetica,sans-Serif" font-size="10.00">vector</text>
</a>
</g>
</g>
<!-- Node1&#45;&gt;Node9 -->
<g id="edge18_Node000001_Node000009" class="edge">
<title>Node1&#45;&gt;Node9</title>
<g id="a_edge18_Node000001_Node000009"><a xlink:title=" ">
<path fill="none" stroke="#63b8ff" d="M433.39,-164.73C445.42,-154.88 457.75,-142.66 466,-129 484.76,-97.92 484.4,-53.86 482.3,-29.16"/>
<polygon fill="#63b8ff" stroke="#63b8ff" points="485.76,-28.59 481.24,-19 478.8,-29.31 485.76,-28.59"/>
</a>
</g>
</g>
<!-- Node10 -->
<g id="Node000010" class="node">
<title>Node10</title>
<g id="a_Node000010"><a xlink:href="result__parser_8h.html" target="_top" xlink:title=" ">
<polygon fill="white" stroke="#666666" points="457,-129 335,-129 335,-110 457,-110 457,-129"/>
<text text-anchor="middle" x="396" y="-117" font-family="Helvetica,sans-Serif" font-size="10.00">../data/result_parser.h</text>
</a>
</g>
</g>
<!-- Node1&#45;&gt;Node10 -->
<g id="edge12_Node000001_Node000010" class="edge">
<title>Node1&#45;&gt;Node10</title>
<g id="a_edge12_Node000001_Node000010"><a xlink:title=" ">
<path fill="none" stroke="#63b8ff" d="M396,-164.91C396,-156.55 396,-147.38 396,-139.55"/>
<polygon fill="#63b8ff" stroke="#63b8ff" points="399.5,-139.3 396,-129.3 392.5,-139.3 399.5,-139.3"/>
</a>
</g>
</g>
<!-- Node12 -->
<g id="Node000012" class="node">
<title>Node12</title>
<g id="a_Node000012"><a xlink:title=" ">
<polygon fill="#e0e0e0" stroke="#999999" points="611.5,-129 546.5,-129 546.5,-110 611.5,-110 611.5,-129"/>
<text text-anchor="middle" x="579" y="-117" font-family="Helvetica,sans-Serif" font-size="10.00">functional</text>
</a>
</g>
</g>
<!-- Node1&#45;&gt;Node12 -->
<g id="edge19_Node000001_Node000012" class="edge">
<title>Node1&#45;&gt;Node12</title>
<g id="a_edge19_Node000001_Node000012"><a xlink:title=" ">
<path fill="none" stroke="#63b8ff" d="M462.07,-164.91C490.91,-153.95 523.42,-141.61 546.83,-132.72"/>
<polygon fill="#63b8ff" stroke="#63b8ff" points="548.16,-135.96 556.26,-129.14 545.67,-129.41 548.16,-135.96"/>
</a>
</g>
</g>
<!-- Node3 -->
<g id="Node000003" class="node">
<title>Node3</title>
<g id="a_Node000003"><a xlink:title=" ">
<polygon fill="#e0e0e0" stroke="#999999" points="305,-19 261,-19 261,0 305,0 305,-19"/>
<text text-anchor="middle" x="283" y="-7" font-family="Helvetica,sans-Serif" font-size="10.00">string</text>
</a>
</g>
</g>
<!-- Node2&#45;&gt;Node3 -->
<g id="edge2_Node000002_Node000003" class="edge">
<title>Node2&#45;&gt;Node3</title>
<g id="a_edge2_Node000002_Node000003"><a xlink:title=" ">
<path fill="none" stroke="#63b8ff" d="M200.94,-109.91C202.72,-96.92 207.6,-71.99 220,-55 229.4,-42.12 243.69,-31.59 256.28,-24.02"/>
<polygon fill="#63b8ff" stroke="#63b8ff" points="258.09,-27.01 265.06,-19.03 254.64,-20.93 258.09,-27.01"/>
</a>
</g>
</g>
<!-- Node2&#45;&gt;Node4 -->
<g id="edge3_Node000002_Node000004" class="edge">
<title>Node2&#45;&gt;Node4</title>
<g id="a_edge3_Node000002_Node000004"><a xlink:title=" ">
<path fill="none" stroke="#63b8ff" d="M162.73,-115C131.72,-110.32 88.11,-99.4 59,-74 45.53,-62.24 37.65,-43.12 33.37,-28.93"/>
<polygon fill="#63b8ff" stroke="#63b8ff" points="36.75,-27.99 30.77,-19.24 29.98,-29.81 36.75,-27.99"/>
</a>
</g>
</g>
<!-- Node5 -->
<g id="Node000005" class="node">
<title>Node5</title>
<g id="a_Node000005"><a xlink:href="client_8h.html" target="_top" xlink:title=" ">
<polygon fill="white" stroke="#666666" points="172,-74 68,-74 68,-55 172,-55 172,-74"/>
<text text-anchor="middle" x="120" y="-62" font-family="Helvetica,sans-Serif" font-size="10.00">../network/client.h</text>
</a>
</g>
</g>
<!-- Node2&#45;&gt;Node5 -->
<g id="edge4_Node000002_Node000005" class="edge">
<title>Node2&#45;&gt;Node5</title>
<g id="a_edge4_Node000002_Node000005"><a xlink:title=" ">
<path fill="none" stroke="#63b8ff" d="M187.15,-109.98C174.86,-101.84 156.09,-89.41 141.52,-79.76"/>
<polygon fill="#63b8ff" stroke="#63b8ff" points="143.36,-76.78 133.09,-74.17 139.49,-82.61 143.36,-76.78"/>
</a>
</g>
</g>
<!-- Node8 -->
<g id="Node000008" class="node">
<title>Node8</title>
<g id="a_Node000008"><a xlink:href="table__data_8h.html" target="_top" xlink:title=" ">
<polygon fill="white" stroke="#666666" points="339.5,-74 228.5,-74 228.5,-55 339.5,-55 339.5,-74"/>
<text text-anchor="middle" x="284" y="-62" font-family="Helvetica,sans-Serif" font-size="10.00">../data/table_data.h</text>
</a>
</g>
</g>
<!-- Node2&#45;&gt;Node8 -->
<g id="edge9_Node000002_Node000008" class="edge">
<title>Node2&#45;&gt;Node8</title>
<g id="a_edge9_Node000002_Node000008"><a xlink:title=" ">
<path fill="none" stroke="#63b8ff" d="M213.5,-109.98C226.4,-101.84 246.1,-89.41 261.4,-79.76"/>
<polygon fill="#63b8ff" stroke="#63b8ff" points="263.67,-82.47 270.26,-74.17 259.93,-76.55 263.67,-82.47"/>
</a>
</g>
</g>
<!-- Node5&#45;&gt;Node3 -->
<g id="edge6_Node000005_Node000003" class="edge">
<title>Node5&#45;&gt;Node3</title>
<g id="a_edge6_Node000005_Node000003"><a xlink:title=" ">
<path fill="none" stroke="#63b8ff" d="M146.19,-54.98C174.73,-45.7 220.41,-30.85 251.04,-20.89"/>
<polygon fill="#63b8ff" stroke="#63b8ff" points="252.38,-24.14 260.8,-17.72 250.21,-17.48 252.38,-24.14"/>
</a>
</g>
</g>
<!-- Node5&#45;&gt;Node4 -->
<g id="edge7_Node000005_Node000004" class="edge">
<title>Node5&#45;&gt;Node4</title>
<g id="a_edge7_Node000005_Node000004"><a xlink:title=" ">
<path fill="none" stroke="#63b8ff" d="M105.38,-54.98C91.14,-46.69 69.25,-33.94 52.55,-24.22"/>
<polygon fill="#63b8ff" stroke="#63b8ff" points="54.29,-21.18 43.89,-19.17 50.77,-27.23 54.29,-21.18"/>
</a>
</g>
</g>
<!-- Node6 -->
<g id="Node000006" class="node">
<title>Node6</title>
<g id="a_Node000006"><a xlink:title=" ">
<polygon fill="#e0e0e0" stroke="#999999" points="164,-19 76,-19 76,0 164,0 164,-19"/>
<text text-anchor="middle" x="120" y="-7" font-family="Helvetica,sans-Serif" font-size="10.00">boost/asio.hpp</text>
</a>
</g>
</g>
<!-- Node5&#45;&gt;Node6 -->
<g id="edge5_Node000005_Node000006" class="edge">
<title>Node5&#45;&gt;Node6</title>
<g id="a_edge5_Node000005_Node000006"><a xlink:title=" ">
<path fill="none" stroke="#63b8ff" d="M120,-54.75C120,-47.8 120,-37.85 120,-29.13"/>
<polygon fill="#63b8ff" stroke="#63b8ff" points="123.5,-29.09 120,-19.09 116.5,-29.09 123.5,-29.09"/>
</a>
</g>
</g>
<!-- Node7 -->
<g id="Node000007" class="node">
<title>Node7</title>
<g id="a_Node000007"><a xlink:title=" ">
<polygon fill="#e0e0e0" stroke="#999999" points="242,-19 182,-19 182,0 242,0 242,-19"/>
<text text-anchor="middle" x="212" y="-7" font-family="Helvetica,sans-Serif" font-size="10.00">iostream</text>
</a>
</g>
</g>
<!-- Node5&#45;&gt;Node7 -->
<g id="edge8_Node000005_Node000007" class="edge">
<title>Node5&#45;&gt;Node7</title>
<g id="a_edge8_Node000005_Node000007"><a xlink:title=" ">
<path fill="none" stroke="#63b8ff" d="M134.78,-54.98C149.18,-46.69 171.31,-33.94 188.19,-24.22"/>
<polygon fill="#63b8ff" stroke="#63b8ff" points="190.03,-27.19 196.95,-19.17 186.54,-21.13 190.03,-27.19"/>
</a>
</g>
</g>
<!-- Node8&#45;&gt;Node3 -->
<g id="edge10_Node000008_Node000003" class="edge">
<title>Node8&#45;&gt;Node3</title>
<g id="a_edge10_Node000008_Node000003"><a xlink:title=" ">
<path fill="none" stroke="#63b8ff" d="M283.83,-54.75C283.7,-47.8 283.52,-37.85 283.35,-29.13"/>
<polygon fill="#63b8ff" stroke="#63b8ff" points="286.85,-29.02 283.16,-19.09 279.85,-29.15 286.85,-29.02"/>
</a>
</g>
</g>
<!-- Node8&#45;&gt;Node9 -->
<g id="edge11_Node000008_Node000009" class="edge">
<title>Node8&#45;&gt;Node9</title>
<g id="a_edge11_Node000008_Node000009"><a xlink:title=" ">
<path fill="none" stroke="#63b8ff" d="M315.49,-54.98C351.4,-45.28 409.85,-29.47 446.55,-19.54"/>
<polygon fill="#63b8ff" stroke="#63b8ff" points="447.55,-22.9 456.29,-16.91 445.73,-16.14 447.55,-22.9"/>
</a>
</g>
</g>
<!-- Node10&#45;&gt;Node3 -->
<g id="edge14_Node000010_Node000003" class="edge">
<title>Node10&#45;&gt;Node3</title>
<g id="a_edge14_Node000010_Node000003"><a xlink:title=" ">
<path fill="none" stroke="#63b8ff" d="M391.01,-109.98C383.18,-97.07 367.03,-72.26 349,-55 336.63,-43.16 320.77,-32.35 307.7,-24.36"/>
<polygon fill="#63b8ff" stroke="#63b8ff" points="309.15,-21.15 298.76,-19.06 305.58,-27.17 309.15,-21.15"/>
</a>
</g>
</g>
<!-- Node10&#45;&gt;Node8 -->
<g id="edge13_Node000010_Node000008" class="edge">
<title>Node10&#45;&gt;Node8</title>
<g id="a_edge13_Node000010_Node000008"><a xlink:title=" ">
<path fill="none" stroke="#63b8ff" d="M378.01,-109.98C360.07,-101.5 332.28,-88.35 311.57,-78.54"/>
<polygon fill="#63b8ff" stroke="#63b8ff" points="312.86,-75.28 302.32,-74.17 309.86,-81.61 312.86,-75.28"/>
</a>
</g>
</g>
<!-- Node10&#45;&gt;Node9 -->
<g id="edge15_Node000010_Node000009" class="edge">
<title>Node10&#45;&gt;Node9</title>
<g id="a_edge15_Node000010_Node000009"><a xlink:title=" ">
<path fill="none" stroke="#63b8ff" d="M414.87,-110C429.47,-102.5 449.15,-90.24 461,-74 470.65,-60.78 475.44,-42.66 477.79,-29.16"/>
<polygon fill="#63b8ff" stroke="#63b8ff" points="481.28,-29.51 479.25,-19.11 474.35,-28.5 481.28,-29.51"/>
</a>
</g>
</g>
<!-- Node11 -->
<g id="Node000011" class="node">
<title>Node11</title>
<g id="a_Node000011"><a xlink:title=" ">
<polygon fill="#e0e0e0" stroke="#999999" points="452,-74 396,-74 396,-55 452,-55 452,-74"/>
<text text-anchor="middle" x="424" y="-62" font-family="Helvetica,sans-Serif" font-size="10.00">sstream</text>
</a>
</g>
</g>
<!-- Node10&#45;&gt;Node11 -->
<g id="edge16_Node000010_Node000011" class="edge">
<title>Node10&#45;&gt;Node11</title>
<g id="a_edge16_Node000010_Node000011"><a xlink:title=" ">
<path fill="none" stroke="#63b8ff" d="M400.62,-109.75C404.46,-102.49 410.02,-91.95 414.76,-82.98"/>
<polygon fill="#63b8ff" stroke="#63b8ff" points="417.89,-84.57 419.46,-74.09 411.7,-81.3 417.89,-84.57"/>
</a>
</g>
</g>
</g>
</svg>
