<?xml version="1.0" encoding="UTF-8" standalone="no"?>
<!DOCTYPE svg PUBLIC "-//W3C//DTD SVG 1.1//EN"
 "http://www.w3.org/Graphics/SVG/1.1/DTD/svg11.dtd">
<!-- Generated by graphviz version 2.43.0 (0)
 -->
<!-- Title: Иерархия классов. Графический вид. Pages: 1 -->
<svg width="284pt" height="138pt"
 viewBox="0.00 0.00 284.00 138.00" xmlns="http://www.w3.org/2000/svg" xmlns:xlink="http://www.w3.org/1999/xlink">
<g id="graph0" class="graph" transform="scale(1 1) rotate(0) translate(4 134)">
<title>Иерархия классов. Графический вид.</title>
<!-- Node0 -->
<g id="Node000000" class="node">
<title>Node0</title>
<g id="a_Node000000"><a xlink:href="classICommand.html" target="_top" xlink:title="Базовый интерфейс для всех команд">
<polygon fill="white" stroke="#666666" points="70,-74 0,-74 0,-55 70,-55 70,-74"/>
<text text-anchor="middle" x="35" y="-62" font-family="Helvetica,sans-Serif" font-size="10.00">ICommand</text>
</a>
</g>
</g>
<!-- Node1 -->
<g id="Node000001" class="node">
<title>Node1</title>
<g id="a_Node000001"><a xlink:href="classInsertCommand.html" target="_top" xlink:title="Команда INSERT для добавления данных в таблицу">
<polygon fill="white" stroke="#666666" points="238.5,-130 143.5,-130 143.5,-111 238.5,-111 238.5,-130"/>
<text text-anchor="middle" x="191" y="-118" font-family="Helvetica,sans-Serif" font-size="10.00">InsertCommand</text>
</a>
</g>
</g>
<!-- Node0&#45;&gt;Node1 -->
<g id="edge1_Node000000_Node000001" class="edge">
<title>Node0&#45;&gt;Node1</title>
<g id="a_edge1_Node000000_Node000001"><a xlink:title=" ">
<path fill="none" stroke="#63b8ff" d="M59.58,-79.51C72.79,-87.34 89.82,-96.52 106,-102.5 117.75,-106.85 130.83,-110.28 143.11,-112.93"/>
<polygon fill="#63b8ff" stroke="#63b8ff" points="61.06,-76.32 50.7,-74.11 57.43,-82.29 61.06,-76.32"/>
</a>
</g>
</g>
<!-- Node2 -->
<g id="Node000002" class="node">
<title>Node2</title>
<g id="a_Node000002"><a xlink:href="classIntersectionCommand.html" target="_top" xlink:title="Команда INTERSECTION для получения пересечения множеств">
<polygon fill="white" stroke="#666666" points="253.5,-93 128.5,-93 128.5,-74 253.5,-74 253.5,-93"/>
<text text-anchor="middle" x="191" y="-81" font-family="Helvetica,sans-Serif" font-size="10.00">IntersectionCommand</text>
</a>
</g>
</g>
<!-- Node0&#45;&gt;Node2 -->
<g id="edge2_Node000000_Node000002" class="edge">
<title>Node0&#45;&gt;Node2</title>
<g id="a_edge2_Node000000_Node000002"><a xlink:title=" ">
<path fill="none" stroke="#63b8ff" d="M80.2,-69.95C95.19,-71.8 112.23,-73.91 128.34,-75.89"/>
<polygon fill="#63b8ff" stroke="#63b8ff" points="80.53,-66.47 70.18,-68.72 79.67,-73.41 80.53,-66.47"/>
</a>
</g>
</g>
<!-- Node3 -->
<g id="Node000003" class="node">
<title>Node3</title>
<g id="a_Node000003"><a xlink:href="classSymmetricDifferenceCommand.html" target="_top" xlink:title="Команда SYMMETRIC_DIFFERENCE для получения симметрической разности">
<polygon fill="white" stroke="#666666" points="276,-56 106,-56 106,-37 276,-37 276,-56"/>
<text text-anchor="middle" x="191" y="-44" font-family="Helvetica,sans-Serif" font-size="10.00">SymmetricDifferenceCommand</text>
</a>
</g>
</g>
<!-- Node0&#45;&gt;Node3 -->
<g id="edge3_Node000000_Node000003" class="edge">
<title>Node0&#45;&gt;Node3</title>
<g id="a_edge3_Node000000_Node000003"><a xlink:title=" ">
<path fill="none" stroke="#63b8ff" d="M80.3,-59.32C89.25,-58.28 98.91,-57.15 108.67,-56.01"/>
<polygon fill="#63b8ff" stroke="#63b8ff" points="79.7,-55.87 70.18,-60.51 80.52,-62.82 79.7,-55.87"/>
</a>
</g>
</g>
<!-- Node4 -->
<g id="Node000004" class="node">
<title>Node4</title>
<g id="a_Node000004"><a xlink:href="classTruncateCommand.html" target="_top" xlink:title="Команда TRUNCATE для очистки таблицы">
<polygon fill="white" stroke="#666666" points="245,-19 137,-19 137,0 245,0 245,-19"/>
<text text-anchor="middle" x="191" y="-7" font-family="Helvetica,sans-Serif" font-size="10.00">TruncateCommand</text>
</a>
</g>
</g>
<!-- Node0&#45;&gt;Node4 -->
<g id="edge4_Node000000_Node000004" class="edge">
<title>Node0&#45;&gt;Node4</title>
<g id="a_edge4_Node000000_Node000004"><a xlink:title=" ">
<path fill="none" stroke="#63b8ff" d="M60.74,-49.83C73.83,-42.57 90.39,-34.17 106,-28.5 116.26,-24.77 127.5,-21.62 138.32,-19.03"/>
<polygon fill="#63b8ff" stroke="#63b8ff" points="58.85,-46.88 51.88,-54.86 62.3,-52.97 58.85,-46.88"/>
</a>
</g>
</g>
</g>
</svg>
