<?xml version="1.0" encoding="UTF-8" standalone="no"?>
<!DOCTYPE svg PUBLIC "-//W3C//DTD SVG 1.1//EN"
 "http://www.w3.org/Graphics/SVG/1.1/DTD/svg11.dtd">
<!-- Generated by graphviz version 2.43.0 (0)
 -->
<!-- Title: reducer_variance.cpp Pages: 1 -->
<svg width="344pt" height="82pt"
 viewBox="0.00 0.00 344.00 82.00" xmlns="http://www.w3.org/2000/svg" xmlns:xlink="http://www.w3.org/1999/xlink">
<g id="graph0" class="graph" transform="scale(1 1) rotate(0) translate(4 78)">
<title>reducer_variance.cpp</title>
<!-- Node1 -->
<g id="Node000001" class="node">
<title>Node1</title>
<g id="a_Node000001"><a xlink:title="Reducer for calculating variance and standard deviation of NYC real estate prices.">
<polygon fill="#999999" stroke="#666666" points="228.5,-74 107.5,-74 107.5,-55 228.5,-55 228.5,-74"/>
<text text-anchor="middle" x="168" y="-62" font-family="Helvetica,sans-Serif" font-size="10.00">reducer_variance.cpp</text>
</a>
</g>
</g>
<!-- Node2 -->
<g id="Node000002" class="node">
<title>Node2</title>
<g id="a_Node000002"><a xlink:title=" ">
<polygon fill="#e0e0e0" stroke="#999999" points="60,-19 0,-19 0,0 60,0 60,-19"/>
<text text-anchor="middle" x="30" y="-7" font-family="Helvetica,sans-Serif" font-size="10.00">iostream</text>
</a>
</g>
</g>
<!-- Node1&#45;&gt;Node2 -->
<g id="edge1_Node000001_Node000002" class="edge">
<title>Node1&#45;&gt;Node2</title>
<g id="a_edge1_Node000001_Node000002"><a xlink:title=" ">
<path fill="none" stroke="#63b8ff" d="M145.83,-54.98C123.23,-46.3 87.94,-32.75 62.25,-22.88"/>
<polygon fill="#63b8ff" stroke="#63b8ff" points="63.17,-19.49 52.58,-19.17 60.66,-26.02 63.17,-19.49"/>
</a>
</g>
</g>
<!-- Node3 -->
<g id="Node000003" class="node">
<title>Node3</title>
<g id="a_Node000003"><a xlink:title=" ">
<polygon fill="#e0e0e0" stroke="#999999" points="122,-19 78,-19 78,0 122,0 122,-19"/>
<text text-anchor="middle" x="100" y="-7" font-family="Helvetica,sans-Serif" font-size="10.00">string</text>
</a>
</g>
</g>
<!-- Node1&#45;&gt;Node3 -->
<g id="edge2_Node000001_Node000003" class="edge">
<title>Node1&#45;&gt;Node3</title>
<g id="a_edge2_Node000001_Node000003"><a xlink:title=" ">
<path fill="none" stroke="#63b8ff" d="M157.07,-54.98C146.92,-47.07 131.58,-35.11 119.35,-25.58"/>
<polygon fill="#63b8ff" stroke="#63b8ff" points="121.16,-22.56 111.12,-19.17 116.86,-28.08 121.16,-22.56"/>
</a>
</g>
</g>
<!-- Node4 -->
<g id="Node000004" class="node">
<title>Node4</title>
<g id="a_Node000004"><a xlink:title=" ">
<polygon fill="#e0e0e0" stroke="#999999" points="196,-19 140,-19 140,0 196,0 196,-19"/>
<text text-anchor="middle" x="168" y="-7" font-family="Helvetica,sans-Serif" font-size="10.00">sstream</text>
</a>
</g>
</g>
<!-- Node1&#45;&gt;Node4 -->
<g id="edge3_Node000001_Node000004" class="edge">
<title>Node1&#45;&gt;Node4</title>
<g id="a_edge3_Node000001_Node000004"><a xlink:title=" ">
<path fill="none" stroke="#63b8ff" d="M168,-54.75C168,-47.8 168,-37.85 168,-29.13"/>
<polygon fill="#63b8ff" stroke="#63b8ff" points="171.5,-29.09 168,-19.09 164.5,-29.09 171.5,-29.09"/>
</a>
</g>
</g>
<!-- Node5 -->
<g id="Node000005" class="node">
<title>Node5</title>
<g id="a_Node000005"><a xlink:title=" ">
<polygon fill="#e0e0e0" stroke="#999999" points="261.5,-19 214.5,-19 214.5,0 261.5,0 261.5,-19"/>
<text text-anchor="middle" x="238" y="-7" font-family="Helvetica,sans-Serif" font-size="10.00">cmath</text>
</a>
</g>
</g>
<!-- Node1&#45;&gt;Node5 -->
<g id="edge4_Node000001_Node000005" class="edge">
<title>Node1&#45;&gt;Node5</title>
<g id="a_edge4_Node000001_Node000005"><a xlink:title=" ">
<path fill="none" stroke="#63b8ff" d="M179.25,-54.98C189.8,-47 205.8,-34.88 218.44,-25.31"/>
<polygon fill="#63b8ff" stroke="#63b8ff" points="220.69,-28 226.55,-19.17 216.46,-22.42 220.69,-28"/>
</a>
</g>
</g>
<!-- Node6 -->
<g id="Node000006" class="node">
<title>Node6</title>
<g id="a_Node000006"><a xlink:title=" ">
<polygon fill="#e0e0e0" stroke="#999999" points="336,-19 280,-19 280,0 336,0 336,-19"/>
<text text-anchor="middle" x="308" y="-7" font-family="Helvetica,sans-Serif" font-size="10.00">iomanip</text>
</a>
</g>
</g>
<!-- Node1&#45;&gt;Node6 -->
<g id="edge5_Node000001_Node000006" class="edge">
<title>Node1&#45;&gt;Node6</title>
<g id="a_edge5_Node000001_Node000006"><a xlink:title=" ">
<path fill="none" stroke="#63b8ff" d="M190.49,-54.98C213.52,-46.27 249.54,-32.63 275.63,-22.75"/>
<polygon fill="#63b8ff" stroke="#63b8ff" points="276.98,-25.98 285.1,-19.17 274.51,-19.44 276.98,-25.98"/>
</a>
</g>
</g>
</g>
</svg>
