<?xml version="1.0" encoding="UTF-8" standalone="no"?>
<!DOCTYPE svg PUBLIC "-//W3C//DTD SVG 1.1//EN"
 "http://www.w3.org/Graphics/SVG/1.1/DTD/svg11.dtd">
<!-- Generated by graphviz version 2.43.0 (0)
 -->
<!-- Title: /home/runner/work/otus&#45;cpp&#45;profession/otus&#45;cpp&#45;profession/hw10/bulk_server/include/async_export.h Pages: 1 -->
<svg width="527pt" height="324pt"
 viewBox="0.00 0.00 527.00 324.00" xmlns="http://www.w3.org/2000/svg" xmlns:xlink="http://www.w3.org/1999/xlink">
<g id="graph0" class="graph" transform="scale(1 1) rotate(0) translate(4 320)">
<title>/home/runner/work/otus&#45;cpp&#45;profession/otus&#45;cpp&#45;profession/hw10/bulk_server/include/async_export.h</title>
<!-- Node1 -->
<g id="Node000001" class="node">
<title>Node1</title>
<g id="a_Node000001"><a xlink:title="Макросы для экспорта/импорта библиотеки">
<polygon fill="#999999" stroke="#666666" points="429,-316 268,-316 268,-264 429,-264 429,-316"/>
<text text-anchor="start" x="276" y="-304" font-family="Helvetica,sans-Serif" font-size="10.00">/home/runner/work/otus</text>
<text text-anchor="start" x="276" y="-293" font-family="Helvetica,sans-Serif" font-size="10.00">&#45;cpp&#45;profession/otus&#45;cpp</text>
<text text-anchor="start" x="276" y="-282" font-family="Helvetica,sans-Serif" font-size="10.00">&#45;profession/hw10/bulk_server</text>
<text text-anchor="middle" x="348.5" y="-271" font-family="Helvetica,sans-Serif" font-size="10.00">/include/async_export.h</text>
</a>
</g>
</g>
<!-- Node2 -->
<g id="Node000002" class="node">
<title>Node2</title>
<g id="a_Node000002"><a xlink:href="async_8h.html" target="_top" xlink:title=" ">
<polygon fill="white" stroke="#666666" points="429,-228 268,-228 268,-176 429,-176 429,-228"/>
<text text-anchor="start" x="276" y="-216" font-family="Helvetica,sans-Serif" font-size="10.00">/home/runner/work/otus</text>
<text text-anchor="start" x="276" y="-205" font-family="Helvetica,sans-Serif" font-size="10.00">&#45;cpp&#45;profession/otus&#45;cpp</text>
<text text-anchor="start" x="276" y="-194" font-family="Helvetica,sans-Serif" font-size="10.00">&#45;profession/hw10/bulk_server</text>
<text text-anchor="middle" x="348.5" y="-183" font-family="Helvetica,sans-Serif" font-size="10.00">/include/async.h</text>
</a>
</g>
</g>
<!-- Node1&#45;&gt;Node2 -->
<g id="edge1_Node000001_Node000002" class="edge">
<title>Node1&#45;&gt;Node2</title>
<g id="a_edge1_Node000001_Node000002"><a xlink:title=" ">
<path fill="none" stroke="#63b8ff" d="M348.5,-253.56C348.5,-245.04 348.5,-236.1 348.5,-228.16"/>
<polygon fill="#63b8ff" stroke="#63b8ff" points="345,-253.66 348.5,-263.66 352,-253.66 345,-253.66"/>
</a>
</g>
</g>
<!-- Node3 -->
<g id="Node000003" class="node">
<title>Node3</title>
<g id="a_Node000003"><a xlink:href="async__server_8h.html" target="_top" xlink:title=" ">
<polygon fill="white" stroke="#666666" points="250,-140 89,-140 89,-88 250,-88 250,-140"/>
<text text-anchor="start" x="97" y="-128" font-family="Helvetica,sans-Serif" font-size="10.00">/home/runner/work/otus</text>
<text text-anchor="start" x="97" y="-117" font-family="Helvetica,sans-Serif" font-size="10.00">&#45;cpp&#45;profession/otus&#45;cpp</text>
<text text-anchor="start" x="97" y="-106" font-family="Helvetica,sans-Serif" font-size="10.00">&#45;profession/hw10/bulk_server</text>
<text text-anchor="middle" x="169.5" y="-95" font-family="Helvetica,sans-Serif" font-size="10.00">/app/server/async_server.h</text>
</a>
</g>
</g>
<!-- Node2&#45;&gt;Node3 -->
<g id="edge2_Node000002_Node000003" class="edge">
<title>Node2&#45;&gt;Node3</title>
<g id="a_edge2_Node000002_Node000003"><a xlink:title=" ">
<path fill="none" stroke="#63b8ff" d="M287,-171.45C265.78,-161.26 242.23,-149.94 221.82,-140.14"/>
<polygon fill="#63b8ff" stroke="#63b8ff" points="285.72,-174.72 296.24,-175.89 288.75,-168.41 285.72,-174.72"/>
</a>
</g>
</g>
<!-- Node6 -->
<g id="Node000006" class="node">
<title>Node6</title>
<g id="a_Node000006"><a xlink:href="session_8h.html" target="_top" xlink:title=" ">
<polygon fill="white" stroke="#666666" points="429,-140 268,-140 268,-88 429,-88 429,-140"/>
<text text-anchor="start" x="276" y="-128" font-family="Helvetica,sans-Serif" font-size="10.00">/home/runner/work/otus</text>
<text text-anchor="start" x="276" y="-117" font-family="Helvetica,sans-Serif" font-size="10.00">&#45;cpp&#45;profession/otus&#45;cpp</text>
<text text-anchor="start" x="276" y="-106" font-family="Helvetica,sans-Serif" font-size="10.00">&#45;profession/hw10/bulk_server</text>
<text text-anchor="middle" x="348.5" y="-95" font-family="Helvetica,sans-Serif" font-size="10.00">/app/server/session.h</text>
</a>
</g>
</g>
<!-- Node2&#45;&gt;Node6 -->
<g id="edge5_Node000002_Node000006" class="edge">
<title>Node2&#45;&gt;Node6</title>
<g id="a_edge5_Node000002_Node000006"><a xlink:title=" ">
<path fill="none" stroke="#63b8ff" d="M348.5,-165.56C348.5,-157.04 348.5,-148.1 348.5,-140.16"/>
<polygon fill="#63b8ff" stroke="#63b8ff" points="345,-165.66 348.5,-175.66 352,-165.66 345,-165.66"/>
</a>
</g>
</g>
<!-- Node8 -->
<g id="Node000008" class="node">
<title>Node8</title>
<g id="a_Node000008"><a xlink:href="async_8cpp.html" target="_top" xlink:title=" ">
<polygon fill="white" stroke="#666666" points="512,-123.5 447,-123.5 447,-104.5 512,-104.5 512,-123.5"/>
<text text-anchor="middle" x="479.5" y="-111.5" font-family="Helvetica,sans-Serif" font-size="10.00">async.cpp</text>
</a>
</g>
</g>
<!-- Node2&#45;&gt;Node8 -->
<g id="edge8_Node000002_Node000008" class="edge">
<title>Node2&#45;&gt;Node8</title>
<g id="a_edge8_Node000002_Node000008"><a xlink:title=" ">
<path fill="none" stroke="#63b8ff" d="M395.14,-170.38C420.44,-153.77 449.84,-134.47 466.4,-123.6"/>
<polygon fill="#63b8ff" stroke="#63b8ff" points="393.18,-167.48 386.74,-175.89 397.02,-173.33 393.18,-167.48"/>
</a>
</g>
</g>
<!-- Node4 -->
<g id="Node000004" class="node">
<title>Node4</title>
<g id="a_Node000004"><a xlink:href="async__server_8cpp.html" target="_top" xlink:title=" ">
<polygon fill="white" stroke="#666666" points="340,-52 179,-52 179,0 340,0 340,-52"/>
<text text-anchor="start" x="187" y="-40" font-family="Helvetica,sans-Serif" font-size="10.00">/home/runner/work/otus</text>
<text text-anchor="start" x="187" y="-29" font-family="Helvetica,sans-Serif" font-size="10.00">&#45;cpp&#45;profession/otus&#45;cpp</text>
<text text-anchor="start" x="187" y="-18" font-family="Helvetica,sans-Serif" font-size="10.00">&#45;profession/hw10/bulk_server</text>
<text text-anchor="middle" x="259.5" y="-7" font-family="Helvetica,sans-Serif" font-size="10.00">/app/server/async_server.cpp</text>
</a>
</g>
</g>
<!-- Node3&#45;&gt;Node4 -->
<g id="edge3_Node000003_Node000004" class="edge">
<title>Node3&#45;&gt;Node4</title>
<g id="a_edge3_Node000003_Node000004"><a xlink:title=" ">
<path fill="none" stroke="#63b8ff" d="M203.37,-80.63C213.23,-71.21 223.85,-61.06 233.17,-52.16"/>
<polygon fill="#63b8ff" stroke="#63b8ff" points="200.83,-78.22 196.02,-87.66 205.66,-83.28 200.83,-78.22"/>
</a>
</g>
</g>
<!-- Node5 -->
<g id="Node000005" class="node">
<title>Node5</title>
<g id="a_Node000005"><a xlink:href="server_2main_8cpp.html" target="_top" xlink:title=" ">
<polygon fill="white" stroke="#666666" points="161,-52 0,-52 0,0 161,0 161,-52"/>
<text text-anchor="start" x="8" y="-40" font-family="Helvetica,sans-Serif" font-size="10.00">/home/runner/work/otus</text>
<text text-anchor="start" x="8" y="-29" font-family="Helvetica,sans-Serif" font-size="10.00">&#45;cpp&#45;profession/otus&#45;cpp</text>
<text text-anchor="start" x="8" y="-18" font-family="Helvetica,sans-Serif" font-size="10.00">&#45;profession/hw10/bulk_server</text>
<text text-anchor="middle" x="80.5" y="-7" font-family="Helvetica,sans-Serif" font-size="10.00">/app/server/main.cpp</text>
</a>
</g>
</g>
<!-- Node3&#45;&gt;Node5 -->
<g id="edge4_Node000003_Node000005" class="edge">
<title>Node3&#45;&gt;Node5</title>
<g id="a_edge4_Node000003_Node000005"><a xlink:title=" ">
<path fill="none" stroke="#63b8ff" d="M136,-80.63C126.25,-71.21 115.75,-61.06 106.53,-52.16"/>
<polygon fill="#63b8ff" stroke="#63b8ff" points="133.66,-83.23 143.28,-87.66 138.52,-78.2 133.66,-83.23"/>
</a>
</g>
</g>
<!-- Node6&#45;&gt;Node4 -->
<g id="edge6_Node000006_Node000004" class="edge">
<title>Node6&#45;&gt;Node4</title>
<g id="a_edge6_Node000006_Node000004"><a xlink:title=" ">
<path fill="none" stroke="#63b8ff" d="M315,-80.63C305.25,-71.21 294.75,-61.06 285.53,-52.16"/>
<polygon fill="#63b8ff" stroke="#63b8ff" points="312.66,-83.23 322.28,-87.66 317.52,-78.2 312.66,-83.23"/>
</a>
</g>
</g>
<!-- Node7 -->
<g id="Node000007" class="node">
<title>Node7</title>
<g id="a_Node000007"><a xlink:href="session_8cpp.html" target="_top" xlink:title=" ">
<polygon fill="white" stroke="#666666" points="519,-52 358,-52 358,0 519,0 519,-52"/>
<text text-anchor="start" x="366" y="-40" font-family="Helvetica,sans-Serif" font-size="10.00">/home/runner/work/otus</text>
<text text-anchor="start" x="366" y="-29" font-family="Helvetica,sans-Serif" font-size="10.00">&#45;cpp&#45;profession/otus&#45;cpp</text>
<text text-anchor="start" x="366" y="-18" font-family="Helvetica,sans-Serif" font-size="10.00">&#45;profession/hw10/bulk_server</text>
<text text-anchor="middle" x="438.5" y="-7" font-family="Helvetica,sans-Serif" font-size="10.00">/app/server/session.cpp</text>
</a>
</g>
</g>
<!-- Node6&#45;&gt;Node7 -->
<g id="edge7_Node000006_Node000007" class="edge">
<title>Node6&#45;&gt;Node7</title>
<g id="a_edge7_Node000006_Node000007"><a xlink:title=" ">
<path fill="none" stroke="#63b8ff" d="M382.37,-80.63C392.23,-71.21 402.85,-61.06 412.17,-52.16"/>
<polygon fill="#63b8ff" stroke="#63b8ff" points="379.83,-78.22 375.02,-87.66 384.66,-83.28 379.83,-78.22"/>
</a>
</g>
</g>
</g>
</svg>
