<?xml version="1.0" encoding="UTF-8" standalone="no"?>
<!DOCTYPE svg PUBLIC "-//W3C//DTD SVG 1.1//EN"
 "http://www.w3.org/Graphics/SVG/1.1/DTD/svg11.dtd">
<!-- Generated by graphviz version 2.43.0 (0)
 -->
<!-- Title: IObservable Pages: 1 -->
<svg width="143pt" height="292pt"
 viewBox="0.00 0.00 143.00 292.00" xmlns="http://www.w3.org/2000/svg" xmlns:xlink="http://www.w3.org/1999/xlink">
<g id="graph0" class="graph" transform="scale(1 1) rotate(0) translate(4 288)">
<title>IObservable</title>
<!-- Node1 -->
<g id="Node000001" class="node">
<title>Node1</title>
<g id="a_Node000001"><a xlink:title="Интерфейс наблюдаемого объекта">
<polygon fill="#999999" stroke="transparent" points="115.5,-284 19.5,-284 19.5,-190 115.5,-190 115.5,-284"/>
<text text-anchor="start" x="38" y="-272" font-family="Helvetica,sans-Serif" font-size="10.00">IObservable</text>
<text text-anchor="start" x="65.5" y="-257" font-family="Helvetica,sans-Serif" font-size="10.00"> </text>
<text text-anchor="start" x="23.5" y="-242" font-family="Helvetica,sans-Serif" font-size="10.00">+</text>
<text text-anchor="start" x="36.5" y="-242" font-family="Helvetica,sans-Serif" font-size="10.00">~IObservable()</text>
<text text-anchor="start" x="23.5" y="-227" font-family="Helvetica,sans-Serif" font-size="10.00">+</text>
<text text-anchor="start" x="36.5" y="-227" font-family="Helvetica,sans-Serif" font-size="10.00">subscribe()</text>
<text text-anchor="start" x="23.5" y="-212" font-family="Helvetica,sans-Serif" font-size="10.00">+</text>
<text text-anchor="start" x="36.5" y="-212" font-family="Helvetica,sans-Serif" font-size="10.00">unsubscribe()</text>
<text text-anchor="start" x="23.5" y="-197" font-family="Helvetica,sans-Serif" font-size="10.00">+</text>
<text text-anchor="start" x="36.5" y="-197" font-family="Helvetica,sans-Serif" font-size="10.00">notify()</text>
<polygon fill="#666666" stroke="#666666" points="19.5,-267 19.5,-267 115.5,-267 115.5,-267 19.5,-267"/>
<polygon fill="#666666" stroke="#666666" points="19.5,-252 19.5,-252 115.5,-252 115.5,-252 19.5,-252"/>
<polygon fill="none" stroke="#666666" points="19.5,-190 19.5,-284 115.5,-284 115.5,-190 19.5,-190"/>
</a>
</g>
</g>
<!-- Node2 -->
<g id="Node000002" class="node">
<title>Node2</title>
<g id="a_Node000002"><a xlink:href="classCommandProcessor.html" target="_top" xlink:title="Обработчик команд с поддержкой паттерна Observer.">
<polygon fill="white" stroke="transparent" points="135,-154 0,-154 0,0 135,0 135,-154"/>
<text text-anchor="start" x="19" y="-142" font-family="Helvetica,sans-Serif" font-size="10.00">CommandProcessor</text>
<text text-anchor="start" x="66" y="-127" font-family="Helvetica,sans-Serif" font-size="10.00"> </text>
<text text-anchor="start" x="4.5" y="-112" font-family="Helvetica,sans-Serif" font-size="10.00">+</text>
<text text-anchor="start" x="17.5" y="-112" font-family="Helvetica,sans-Serif" font-size="10.00">CommandProcessor()</text>
<text text-anchor="start" x="4.5" y="-97" font-family="Helvetica,sans-Serif" font-size="10.00">+</text>
<text text-anchor="start" x="17.5" y="-97" font-family="Helvetica,sans-Serif" font-size="10.00">~CommandProcessor()</text>
<text text-anchor="start" x="4.5" y="-82" font-family="Helvetica,sans-Serif" font-size="10.00">+</text>
<text text-anchor="start" x="17.5" y="-82" font-family="Helvetica,sans-Serif" font-size="10.00">process_command()</text>
<text text-anchor="start" x="4.5" y="-67" font-family="Helvetica,sans-Serif" font-size="10.00">+</text>
<text text-anchor="start" x="17.5" y="-67" font-family="Helvetica,sans-Serif" font-size="10.00">flush_remaining()</text>
<text text-anchor="start" x="4.5" y="-52" font-family="Helvetica,sans-Serif" font-size="10.00">+</text>
<text text-anchor="start" x="17.5" y="-52" font-family="Helvetica,sans-Serif" font-size="10.00">shutdown()</text>
<text text-anchor="start" x="4.5" y="-37" font-family="Helvetica,sans-Serif" font-size="10.00">+</text>
<text text-anchor="start" x="17.5" y="-37" font-family="Helvetica,sans-Serif" font-size="10.00">subscribe()</text>
<text text-anchor="start" x="4.5" y="-22" font-family="Helvetica,sans-Serif" font-size="10.00">+</text>
<text text-anchor="start" x="17.5" y="-22" font-family="Helvetica,sans-Serif" font-size="10.00">unsubscribe()</text>
<text text-anchor="start" x="4.5" y="-7" font-family="Helvetica,sans-Serif" font-size="10.00">+</text>
<text text-anchor="start" x="17.5" y="-7" font-family="Helvetica,sans-Serif" font-size="10.00">notify()</text>
<polygon fill="#666666" stroke="#666666" points="0.5,-137 0.5,-137 135.5,-137 135.5,-137 0.5,-137"/>
<polygon fill="#666666" stroke="#666666" points="0.5,-122 0.5,-122 135.5,-122 135.5,-122 0.5,-122"/>
<polygon fill="none" stroke="#666666" points="0,0 0,-154 135,-154 135,0 0,0"/>
</a>
</g>
</g>
<!-- Node1&#45;&gt;Node2 -->
<g id="edge1_Node000001_Node000002" class="edge">
<title>Node1&#45;&gt;Node2</title>
<g id="a_edge1_Node000001_Node000002"><a xlink:title=" ">
<path fill="none" stroke="#63b8ff" d="M67.5,-179.64C67.5,-171.39 67.5,-162.78 67.5,-154.21"/>
<polygon fill="none" stroke="#63b8ff" points="64,-179.88 67.5,-189.88 71,-179.88 64,-179.88"/>
</a>
</g>
</g>
</g>
</svg>
