<?xml version="1.0" encoding="UTF-8" standalone="no"?>
<!DOCTYPE svg PUBLIC "-//W3C//DTD SVG 1.1//EN"
 "http://www.w3.org/Graphics/SVG/1.1/DTD/svg11.dtd">
<!-- Generated by graphviz version 2.43.0 (0)
 -->
<!-- Title: DataSample Pages: 1 -->
<svg width="115pt" height="153pt"
 viewBox="0.00 0.00 115.00 153.00" xmlns="http://www.w3.org/2000/svg" xmlns:xlink="http://www.w3.org/1999/xlink">
<g id="graph0" class="graph" transform="scale(1 1) rotate(0) translate(4 149)">
<title>DataSample</title>
<!-- Node1 -->
<g id="Node000001" class="node">
<title>Node1</title>
<g id="a_Node000001"><a xlink:title="Структура для хранения одного примера данных">
<polygon fill="#999999" stroke="transparent" points="98,-49 9,-49 9,0 98,0 98,-49"/>
<text text-anchor="start" x="23.5" y="-36.5" font-family="Helvetica,sans-Serif" font-size="10.00">DataSample</text>
<text text-anchor="start" x="13.5" y="-21.5" font-family="Helvetica,sans-Serif" font-size="10.00">+</text>
<text text-anchor="start" x="26.5" y="-21.5" font-family="Helvetica,sans-Serif" font-size="10.00">label</text>
<text text-anchor="start" x="13.5" y="-6.5" font-family="Helvetica,sans-Serif" font-size="10.00">+</text>
<text text-anchor="start" x="26.5" y="-6.5" font-family="Helvetica,sans-Serif" font-size="10.00">DataSample()</text>
<polygon fill="#666666" stroke="#666666" points="9.5,-31.5 9.5,-31.5 98.5,-31.5 98.5,-31.5 9.5,-31.5"/>
<polygon fill="#666666" stroke="#666666" points="9.5,-16.5 9.5,-16.5 24.5,-16.5 24.5,-16.5 9.5,-16.5"/>
<polygon fill="#666666" stroke="#666666" points="24.5,-16.5 24.5,-16.5 98.5,-16.5 98.5,-16.5 24.5,-16.5"/>
<polygon fill="none" stroke="#666666" points="9,0 9,-49 98,-49 98,0 9,0"/>
</a>
</g>
</g>
<!-- Node2 -->
<g id="Node000002" class="node">
<title>Node2</title>
<g id="a_Node000002"><a xlink:title=" ">
<polygon fill="white" stroke="transparent" points="107,-145 0,-145 0,-96 107,-96 107,-145"/>
<text text-anchor="start" x="5.5" y="-132.5" font-family="Helvetica,sans-Serif" font-size="10.00">std::vector&lt; float &gt;</text>
<text text-anchor="start" x="14.5" y="-117.5" font-family="Helvetica,sans-Serif" font-size="10.00">+</text>
<text text-anchor="start" x="37.5" y="-117.5" font-family="Helvetica,sans-Serif" font-size="10.00">elements</text>
<text text-anchor="start" x="52" y="-102.5" font-family="Helvetica,sans-Serif" font-size="10.00"> </text>
<polygon fill="#666666" stroke="#666666" points="0.5,-127.5 0.5,-127.5 107.5,-127.5 107.5,-127.5 0.5,-127.5"/>
<polygon fill="#666666" stroke="#666666" points="0.5,-112.5 0.5,-112.5 35.5,-112.5 35.5,-112.5 0.5,-112.5"/>
<polygon fill="#666666" stroke="#666666" points="35.5,-112.5 35.5,-112.5 107.5,-112.5 107.5,-112.5 35.5,-112.5"/>
<polygon fill="none" stroke="#666666" points="0,-96 0,-145 107,-145 107,-96 0,-96"/>
</a>
</g>
</g>
<!-- Node2&#45;&gt;Node1 -->
<g id="edge1_Node000001_Node000002" class="edge">
<title>Node2&#45;&gt;Node1</title>
<g id="a_edge1_Node000001_Node000002"><a xlink:title=" ">
<path fill="none" stroke="#63b8ff" d="M53.5,-95.78C53.5,-85.32 53.5,-72.79 53.5,-61.23"/>
<polygon fill="none" stroke="#63b8ff" points="53.5,-61.21 49.5,-55.21 53.5,-49.21 57.5,-55.21 53.5,-61.21"/>
</a>
</g>
<text text-anchor="middle" x="79.5" y="-70" font-family="Helvetica,sans-Serif" font-size="10.00" fill="grey"> +features</text>
</g>
</g>
</svg>
