<?xml version="1.0" encoding="UTF-8" standalone="no"?>
<!DOCTYPE svg PUBLIC "-//W3C//DTD SVG 1.1//EN"
 "http://www.w3.org/Graphics/SVG/1.1/DTD/svg11.dtd">
<!-- Generated by graphviz version 2.43.0 (0)
 -->
<!-- Title: Graphical Class Hierarchy Pages: 1 -->
<svg width="135pt" height="64pt"
 viewBox="0.00 0.00 135.00 64.00" xmlns="http://www.w3.org/2000/svg" xmlns:xlink="http://www.w3.org/1999/xlink">
<g id="graph0" class="graph" transform="scale(1 1) rotate(0) translate(4 60)">
<title>Graphical Class Hierarchy</title>
<!-- Node0 -->
<g id="Node000000" class="node">
<title>Node0</title>
<g id="a_Node000000"><a xlink:href="classShape.html" target="_top" xlink:title="Abstract base class for all geometric shapes.">
<polygon fill="white" stroke="#666666" points="47,-37 0,-37 0,-18 47,-18 47,-37"/>
<text text-anchor="middle" x="23.5" y="-25" font-family="Helvetica,sans-Serif" font-size="10.00">Shape</text>
</a>
</g>
</g>
<!-- Node1 -->
<g id="Node000001" class="node">
<title>Node1</title>
<g id="a_Node000001"><a xlink:href="classCircle.html" target="_top" xlink:title="Concrete implementation of a circle shape.">
<polygon fill="white" stroke="#666666" points="127,-56 83,-56 83,-37 127,-37 127,-56"/>
<text text-anchor="middle" x="105" y="-44" font-family="Helvetica,sans-Serif" font-size="10.00">Circle</text>
</a>
</g>
</g>
<!-- Node0&#45;&gt;Node1 -->
<g id="edge4_Node000000_Node000001" class="edge">
<title>Node0&#45;&gt;Node1</title>
<g id="a_edge4_Node000000_Node000001"><a xlink:title=" ">
<path fill="none" stroke="#63b8ff" d="M56.95,-35.26C65.65,-37.33 74.82,-39.53 82.74,-41.42"/>
<polygon fill="#63b8ff" stroke="#63b8ff" points="57.61,-31.81 47.07,-32.89 55.98,-38.62 57.61,-31.81"/>
</a>
</g>
</g>
<!-- Node2 -->
<g id="Node000002" class="node">
<title>Node2</title>
<g id="a_Node000002"><a xlink:href="classLine.html" target="_top" xlink:title="Concrete implementation of a line shape.">
<polygon fill="white" stroke="#666666" points="123.5,-19 86.5,-19 86.5,0 123.5,0 123.5,-19"/>
<text text-anchor="middle" x="105" y="-7" font-family="Helvetica,sans-Serif" font-size="10.00">Line</text>
</a>
</g>
</g>
<!-- Node0&#45;&gt;Node2 -->
<g id="edge5_Node000000_Node000002" class="edge">
<title>Node0&#45;&gt;Node2</title>
<g id="a_edge5_Node000000_Node000002"><a xlink:title=" ">
<path fill="none" stroke="#63b8ff" d="M56.86,-20.17C66.97,-17.88 77.74,-15.45 86.43,-13.48"/>
<polygon fill="#63b8ff" stroke="#63b8ff" points="56.05,-16.77 47.07,-22.39 57.59,-23.6 56.05,-16.77"/>
</a>
</g>
</g>
</g>
</svg>
